<?xml version="1.0" encoding="UTF-8" standalone="no"?>
<!DOCTYPE svg PUBLIC "-//W3C//DTD SVG 1.1//EN" "http://www.w3.org/Graphics/SVG/1.1/DTD/svg11.dtd">
<svg width="100%" height="100%" viewBox="0 0 650 200" version="1.1" xmlns="http://www.w3.org/2000/svg" xmlns:xlink="http://www.w3.org/1999/xlink" xml:space="preserve" xmlns:serif="http://www.serif.com/" style="fill-rule:evenodd;clip-rule:evenodd;stroke-linecap:round;stroke-linejoin:round;stroke-miterlimit:1.5;">
    <g id="color" transform="matrix(1,0,0,1,-75,-200)">
        <g transform="matrix(1,0,0,1,27.8072,34.8125)">
            <path d="M214.205,306.551C219.486,306.551 223.249,306.878 228.919,308.289C233.204,309.355 237.548,306.742 238.614,302.457C239.681,298.172 237.068,293.828 232.783,292.762C225.623,290.981 220.873,290.551 214.205,290.551C209.79,290.551 206.205,294.136 206.205,298.551C206.205,302.966 209.79,306.551 214.205,306.551Z" style="fill:rgb(255,116,0);"/>
        </g>
        <g transform="matrix(1,0,0,1,27.8072,34.8125)">
            <path d="M68.97,285.394C69.009,283.853 69.085,282.479 69.206,281.337C69.428,279.253 70.11,273.986 71.942,270.964C74.04,267.504 77.157,265.649 81.004,265.649C80.227,265.649 79.015,265.961 79.015,265.961C79.015,265.961 84.557,265.644 86.172,266.619C87.484,267.411 89.455,268.744 90.086,272.499C90.467,274.763 89.846,278.303 89.259,280.498C89.131,281.397 88.928,282.267 88.652,283.121C88.637,284.198 88.654,285.14 88.727,285.618C89.81,292.735 92.573,296.089 94.808,302.654C95.077,302.968 95.352,303.271 95.63,303.563C98.726,306.821 103.375,308.218 107.571,308.848C110.621,309.305 113.48,309.405 115.402,309.154C117.257,308.424 118.907,307.928 119.461,307.824C123.657,307.034 125.925,309.261 126.539,309.835C128.949,312.088 129.964,314.943 128.526,318.61C128.503,318.667 128.457,318.815 128.365,319.028C128.518,320.361 128.336,321.75 127.77,323.07C126.284,326.538 122.632,328.417 119.068,327.804C117.089,329.115 114.548,329.535 112.123,328.726L111.68,328.57C111.261,328.753 110.933,328.89 110.758,328.954C109.046,329.58 107.67,329.562 106.771,329.444C105.368,330.044 100.838,331.66 92.874,331.608C91.046,331.596 88.663,331.111 86.144,330.221C84.094,329.497 81.257,328.264 79.221,327.344C77.274,327.617 75.153,327.222 73.061,325.394C72.834,325.195 70.887,323.797 70.271,319.876C70.121,318.925 70.13,318.061 70.254,317.275L70.161,315.713L69.971,312.698C67.843,309.027 66.267,303.783 66.205,295.988C66.173,291.917 67.284,288.567 68.97,285.394Z" style="fill:white;"/>
        </g>
        <g transform="matrix(1,0,0,1,-10.1043,30.5132)">
            <path d="M574.381,211.034C574.507,209.625 574.994,208.098 576.231,206.575C577.902,204.519 580.285,202.958 583.154,202.038C587.272,200.717 592.657,200.84 595.915,201.247C601.043,201.888 606.173,203.886 611.182,206.514C617.268,209.706 623.184,213.891 628.79,216.538C629.808,217.019 631.548,216.857 633.321,216.957C636.954,217.16 640.715,217.428 643.366,218.225C649.551,220.083 652.394,224.127 651.926,229.724C651.722,232.162 650.761,234.643 649.247,237.114C648.445,238.422 647.373,239.742 646.577,241.2L646.649,241.374C648.237,241.437 649.534,241.875 650.561,242.388C652.827,243.519 654.628,245.437 655.513,248.44C655.979,250.024 656.098,252.409 655.82,255.263C656.157,257.04 655.964,258.787 655.223,260.51C655.013,260.998 654.752,261.5 654.417,262.003C653.489,264.617 652.178,266.829 650.724,268.954C649.127,271.289 647.042,273.342 646.595,277.17C646.613,277.725 646.703,280.843 646.51,282.461C646.201,285.049 645.206,287.123 644.071,288.456C641.946,290.951 639.085,292.343 635.018,291.405C629.557,290.144 626.381,286.326 625.187,281.426C624.836,279.989 624.707,278.445 624.762,276.889C622.192,276.193 619.697,274.507 617.802,271.257C617.467,270.683 617.186,270.083 616.965,269.457C615.596,269.441 614.255,269.389 612.977,269.331C611.745,269.275 609.483,268.924 607.616,268.236C605.315,268.838 603.07,269.571 600.969,270.565C600.937,270.991 600.864,271.366 600.741,271.66C600.006,273.407 598.628,275.901 594.27,276.773C592.504,277.126 589.367,278.525 586.11,279.509C582.85,280.494 579.502,281.127 576.677,281.023C571.114,280.818 566.914,278.352 564.771,273.211C563.532,270.236 563.596,267.224 564.681,264.274C564.945,263.559 565.309,262.842 565.731,262.139C564.796,260.217 564.1,258.082 563.262,256.195C562.524,254.537 561.892,252.904 561.372,251.292C560.334,249.753 559.978,248.056 560.091,246.328C558.173,236.2 560.844,226.728 568.842,216.645C570.998,213.925 572.677,212.273 574.381,211.034Z" style="fill:rgb(246,185,133);"/>
        </g>
        <g transform="matrix(1,0,0,1,-10.1043,30.5132)">
            <path d="M520.073,331.231C520.411,331.078 520.752,330.932 521.097,330.794C525.197,329.154 529.857,331.151 531.496,335.251C533.136,339.351 531.139,344.01 527.04,345.65C522.062,347.641 517.723,351.113 512.585,352.993C501.22,357.151 488.804,358.043 476.785,358.043C472.412,358.043 468.071,358.083 463.716,357.62C463.048,357.549 461.025,357.31 459.477,356.772C457.596,356.118 456.116,355.036 455.159,353.936C453.205,351.691 452.435,349.005 453.347,345.812C453.996,343.541 455.676,341.097 458.905,339.471C462.604,337.608 470.824,336.787 473.031,336.411C486.693,334.086 501.298,334.014 514.657,330.674C516.546,330.202 518.446,330.445 520.073,331.231Z" style="fill:rgb(246,185,133);"/>
        </g>
        <g transform="matrix(1,0,0,1,-10.1043,30.5132)">
            <path d="M558.15,245.535C558.265,244.313 558.428,243.063 558.636,241.797C560.051,233.17 563.322,223.706 565.518,218.288C566.471,215.938 577.26,201.289 580.236,197.938C581.86,196.11 584.663,195.944 586.491,197.568C588.32,199.192 588.485,201.995 586.862,203.823C584.241,206.774 574.569,219.548 573.731,221.617C572.176,225.451 570.025,231.486 568.523,237.679C570.604,237.508 572.749,238.129 575.012,239.453C577.773,241.071 580.913,244.036 584.947,246.35C588.913,248.626 590.905,250.199 592.12,251.69C592.853,251.965 593.523,252.438 594.043,253.099C595.759,255.283 597.115,257.908 597.74,260.677C600.542,259.897 603.863,258.996 609.746,257.85C614.885,256.849 624.018,251.75 627.931,247.838C629.336,246.432 634.832,240.69 635.929,239.018C636.525,238.109 643.444,228 644.801,226.853C646.523,225.397 648.148,225.658 648.88,225.835C649.964,226.096 650.85,226.684 651.51,227.641C651.897,228.202 652.307,229.018 652.307,230.216C652.307,230.586 652.266,231.211 651.956,232.015C651.768,232.503 651.249,233.511 650.457,234.838C647.418,239.929 639.722,251.443 638.708,253.085C635.564,258.175 630.214,263.853 624.662,266.544C617.222,270.151 605.957,273.084 594.891,273.652C594.295,274.078 593.738,274.231 593.478,274.303C592.151,274.668 590.935,274.508 589.849,273.743C587.38,273.701 584.953,273.523 582.615,273.192C572.214,271.718 563.59,267.183 559.657,258.829C557.258,255.31 556.521,251.304 557.414,247.678C557.593,246.951 557.837,246.233 558.15,245.535ZM569.253,246.534C568.183,247.003 567.343,247.6 566.774,248.306C566.635,250.63 566.771,252.723 567.389,254.379C569.072,256.383 571.924,257.345 574.131,258.616C576.315,259.874 579.267,261.541 582.212,262.52C583.66,263.002 585.089,263.359 586.351,263.173L586.96,263.08C586.551,261.682 586.283,260.54 586.047,259.568C585.817,258.617 585.762,257.931 585.267,257.305C584.504,256.341 583.113,255.514 580.537,254.037C577.044,252.033 574.183,249.575 571.67,247.834C571.116,247.45 570.589,247.11 570.074,246.847C569.819,246.717 569.389,246.576 569.253,246.534Z" style="fill:rgb(117,81,63);"/>
        </g>
        <g transform="matrix(1,0,0,1,-10.1043,30.5132)">
            <path d="M543.854,249.1C545.895,247.607 547.688,246.329 548.44,245.878C551.723,243.905 554.408,244.539 555.39,244.827C557.428,245.427 560.487,247.444 562.135,251.917C564.256,257.675 565.325,271.033 565.175,272.991C564.971,275.646 567.679,276.587 569.911,277.274C576.671,279.354 581.05,278.544 585.72,276.936C589.928,275.486 594.315,273.56 599.942,271.952C603.165,271.031 607.872,269.375 612.188,269.055C616.937,268.702 621.308,269.807 624.629,272.675C628.846,276.316 629.551,280.91 628.006,285.553C626.705,289.461 623.087,293.431 620.481,295.255L620.294,295.381C636.996,307.055 633.753,307.602 640.17,315.02C644.046,319.5 648.998,320.779 652.593,322.457C658.76,325.336 664.696,325.115 670.762,324.873C670.365,323.143 669.303,321.515 668.306,319.902C666.26,316.59 664.013,313.438 662.623,310.567C661.549,309.282 658.569,305.616 658.002,303.919C657.9,303.611 657.812,303.308 657.743,303.008C654.644,300.898 649.967,297.13 646.734,294.008C644.349,291.705 642.693,289.544 642.082,288.333C640.08,284.36 641.341,281.289 642.578,279.521C645.094,275.922 650.885,273.722 658.34,276.38C666.963,279.452 679.044,288.749 681.077,291.749C684.839,297.303 692.395,302.326 698.653,308.359C703.522,313.053 707.676,318.228 710.086,324.114C710.815,325.492 711.407,326.901 711.754,328.286C712.172,329.954 712.365,331.618 712.256,333.25L712.304,333.986L712.305,334.022L712.311,334.024C713.712,334.671 714.575,335.512 715.136,336.182C716.87,338.253 717.26,340.463 716.904,342.636C716.667,344.079 716.057,345.767 714.351,347.306C713.87,347.74 713.098,348.363 711.813,348.865C711.306,349.063 709.333,349.525 704.669,350.413C689.321,353.337 677.503,353.889 662.236,354.499C651.247,354.939 640.647,353.869 629.436,352.44C626.48,353.015 623.563,353.136 620.79,352.548C618.271,352.013 615.489,350.598 612.845,348.275C611.178,347.482 609.846,346.652 608.683,345.841C605.51,343.627 604.626,341.078 597.117,340.599C585.684,339.869 577.841,344.956 569.975,348.236C562.627,351.299 555.29,353.228 546.605,351.574C539.52,350.225 536.438,347.229 534.282,343.869C533.506,342.659 532.885,341.349 532.281,339.955C531.69,338.592 531.215,336.98 529.539,335.535C528.518,334.655 526.749,334.373 524.913,333.996C520.217,333.033 514.861,332.815 511.573,332.529C500.804,331.592 493.878,335.727 483.97,338.261C466.638,342.695 449.05,347.739 431.608,351.477L430.106,351.804L429.255,351.996C428.65,352.124 428.294,352.156 428.235,352.161C426.228,352.362 425.046,351.847 424.64,351.695C422.348,350.839 421.13,349.416 420.425,348.072C414.537,347.934 408.471,347.317 403.925,345.568C399.576,343.896 396.236,341.433 394.219,338.115C392.462,339.221 390.278,339.646 388.102,339.125C383.807,338.097 381.155,333.777 382.183,329.483C383.178,325.326 381.906,320.492 380.556,315.92C378.692,309.605 376.378,303.676 375.699,299.552C374.831,294.281 376.244,290.446 378.495,288.114C380.255,286.291 382.778,284.862 386.604,284.795C388.878,284.755 392.161,285.322 396.635,287.022C397.855,286.935 403.613,286.51 406.676,286.093C412.384,285.316 418.107,285.412 423.737,285.666C434.826,283.743 446.415,278.242 454.74,272.972C459.549,269.927 463.269,267.185 464.525,265.245C465.024,264.473 466.143,263.131 468.233,261.829C471.049,260.074 477.794,256.988 485.866,253.94C496.166,250.051 508.658,246.178 517.482,244.969C522.655,244.261 526.9,244.545 529.608,245.497C531.485,246.157 537.597,247.317 543.263,248.925L543.854,249.1ZM417.475,301.456C416.237,301.448 414.995,301.465 413.753,301.52L413.739,301.979L413.689,302.881L414.761,302.444C415.22,302.271 415.68,302.098 416.139,301.924L417.475,301.456Z" style="fill:rgb(181,181,181);"/>
        </g>
        <g transform="matrix(1,0,0,1,27.8072,34.8125)">
            <path d="M241.756,287.158C241.732,289.236 241.467,293.097 239.941,295.105C237.205,298.705 233.842,299.887 229.912,299.692C227.708,299.582 225.052,298.548 222.231,298.024C218.884,297.402 215.487,297.293 213.124,296.441C208.923,294.925 206.185,292.18 205.382,287.36C204.853,284.184 205.172,280.464 206.026,276.656C206.943,272.569 208.495,268.324 209.255,264.98C212.782,249.462 216.445,227.651 225.628,214.97C229.302,209.895 235.475,203.833 241.475,201.23C247.714,198.522 253.863,198.896 258.932,203.383C262.319,206.379 266.561,210.886 270.678,215.909L271.917,216.964C284.778,228.148 312.536,257.047 314.516,258.714C324.164,266.839 325.174,272.088 339.209,280.804C339.615,281.056 340.077,280.975 340.451,281.045C341.316,281.207 342.128,281.385 342.867,281.617C344.969,282.278 346.687,283.361 348.059,284.959C349.579,286.731 351.05,289.433 350.762,294.357C350.549,297.993 350.746,303.566 350.886,309.278C351.963,310.824 352.907,313.076 353.152,316.577C353.889,327.151 348.467,333.458 340.446,337.005C331.822,340.82 319.32,340.635 312.357,340.099L312.174,340.085C310.867,340.285 309.555,340.462 308.237,340.614C299.356,341.638 290.388,341.121 281.512,342.107C273.199,343.031 264.902,344.829 256.477,344.291L255.531,344.223C254.087,344.34 252.633,344.417 251.169,344.447C238.546,344.705 225.773,341.953 213.228,339.246C203.667,338.372 194.129,337.063 184.625,335.823C180.466,335.281 176.263,335.177 172.077,335.01C171.76,334.997 168.225,334.979 166.218,334.75C159.51,334.762 152.815,334.652 146.155,333.819C141.643,333.255 137.298,332.043 132.882,330.992C132.194,330.828 127.851,329.492 126.299,328.247C123.071,325.658 122.578,322.398 123.286,319.567C123.443,318.938 123.675,318.298 123.998,317.675C122.66,316.247 121.841,314.326 121.841,312.216C121.841,307.801 125.426,304.216 129.841,304.216C140.099,304.216 151.563,308.558 161.843,309.759C162.498,309.326 163.183,309.012 163.862,308.786C172.144,306.025 185.394,307.018 194.124,305.879C203.111,304.707 206.274,302.979 215.151,305.154C219.081,306.117 227.267,304.974 231.412,304.274C240.7,302.705 249.806,302.977 258.783,303.796C268.644,303.718 278.749,303.956 287.438,303.311C277.573,298.575 271.429,292.31 266.861,284.734C262.471,280.991 259.377,276.475 258.078,270.605C257.774,270.165 254.516,265.484 252.058,263.168C251.376,262.525 250.425,261.789 249.659,261.223C248.996,262.328 247.994,264.098 247.48,265.513C245.314,271.467 244.095,278.891 243.132,283.829C242.954,284.742 242.278,286.158 241.756,287.158Z" style="fill:rgb(45,45,45);"/>
        </g>
        <g transform="matrix(7.4472,-2.85442,5.46898,14.2686,-5199.46,-2382.4)">
            <path d="M550.075,300.685C550.382,300.685 550.673,300.624 550.978,300.58C551.273,300.538 551.448,300.378 551.367,300.224C551.286,300.07 550.98,299.979 550.684,300.021C550.476,300.051 550.284,300.105 550.075,300.105C549.768,300.105 549.519,300.235 549.519,300.395C549.519,300.555 549.768,300.685 550.075,300.685Z" style="fill:rgb(255,185,236);"/>
        </g>
        <g transform="matrix(1,0,0,1,-10.1043,30.5132)">
            <path d="M605.808,184.933C611.14,181.902 617.449,179.476 623.651,178.327C632.487,176.691 640.957,177.748 646.592,181.675C649.462,183.676 651.714,186.591 653.446,189.983C655.174,193.369 656.34,197.303 657.697,200.357C659.334,204.04 661.432,209.459 662.24,214.609C662.967,219.242 662.615,223.699 660.996,227.24C657.37,235.173 649.061,236 641.914,234.836C636.792,234.002 631.995,232.019 627.231,229.889C623.601,228.265 619.999,226.528 616.117,225.676C613.902,225.189 610.771,225.026 608.068,224.301C604.568,223.361 601.609,221.629 599.637,219.131C597.542,216.476 597.245,213.978 597.496,211.911C597.629,210.819 597.943,209.756 598.467,208.756C595.88,207.728 593.255,206.694 590.411,205.891C583.791,204.024 576.383,204.962 569.579,204.962C565.164,204.962 561.579,201.378 561.579,196.962C561.579,192.547 565.164,188.962 569.579,188.962C577.808,188.962 586.748,188.234 594.754,190.492C595.386,190.67 596.003,190.864 596.609,191.076C597.452,187.393 600.827,184.716 604.737,184.879L605.808,184.933Z" style="fill:rgb(121,88,48);"/>
        </g>
        <g transform="matrix(1,0,0,1,-10.1043,30.5132)">
            <path d="M655.641,227.06L656.711,227.053C659.157,227.053 661.142,229.039 661.142,231.484C661.142,233.929 659.157,235.915 656.711,235.915C655.433,235.915 653.421,235.934 651.993,235.352C650.538,234.758 649.409,233.749 648.736,232.267C647.724,230.041 648.71,227.412 650.936,226.4C652.549,225.667 654.374,225.983 655.641,227.06Z" style="fill:rgb(255,185,236);"/>
        </g>
    </g>
    <g id="Outline" transform="matrix(1,0,0,1,-85.1043,-169.487)">
        <g transform="matrix(0.997701,-0.0677689,0.0677689,0.997701,15.4629,28.7542)">
            <path d="M569.632,200.508C551.96,200.508 543.229,220.812 533.799,230.241C531.476,232.565 533.558,238.869 531.512,240.915C526.016,246.411 526.711,257.461 531.512,262.262C533.137,263.886 533.049,272.948 536.086,275.985C538.374,278.272 545.997,275.222 548.285,277.51C551.518,280.743 567.908,279.797 573.443,279.797C575.476,279.797 583.877,282.323 585.642,280.559C589.391,276.81 597.574,277.013 600.889,273.698C608.123,266.464 614.52,253.206 622.236,245.489C624.013,243.712 623.136,239.877 624.524,237.103C624.962,236.226 625.286,236.531 625.286,235.578L625.286,234.053C625.343,233.997 629.114,221.482 626.811,220.33C621.07,217.46 623.882,208.253 619.949,204.32C617.367,201.738 617.993,197.027 615.375,194.409C614.104,193.139 612.071,192.63 610.801,191.36C609.602,190.161 591.229,191.872 590.216,192.884C588.691,194.409 584.117,192.884 582.592,194.409C578.525,198.476 557.22,202.247 553.621,205.845C552.367,207.1 544.836,212.706 543.71,212.706" style="fill:none;stroke:black;stroke-width:1px;"/>
        </g>
        <path d="M640.534,288.183C631.421,288.183 630.576,280.512 626.048,275.985C625.702,275.639 625.099,267.692 625.286,267.598C629.735,265.374 628.343,261.491 632.147,257.687C636.849,252.986 640.407,247.141 645.108,242.44C645.405,242.143 647.692,242.44 648.158,242.44C655.111,242.44 655.019,247.05 655.019,253.875C655.019,254.532 655.419,259.775 655.019,259.975C649.485,262.742 647.395,262.168 647.395,270.648C647.395,271.304 646.996,276.547 647.395,276.747C648.987,277.543 651.97,276.823 651.97,279.034" style="fill:none;stroke:black;stroke-width:1px;"/>
        <g transform="matrix(0.997701,-0.0677689,0.0677689,0.997701,15.4629,28.7542)">
            <path d="M613.088,287.421C614.955,287.421 631.992,294.889 632.91,295.807C633.798,296.695 634.975,299.508 636.722,300.381C644.567,304.304 646.712,312.642 652.459,318.389C654.33,320.26 659.26,320.616 660.845,322.201C664.329,325.685 666.777,333.978 670.358,337.559C674.654,341.855 675.459,355.62 678.744,358.906C678.972,359.134 678.878,364.938 678.744,365.005C669.198,369.778 661.473,363.541 649.682,367.471C647.126,368.323 642.937,366.27 640.534,367.471C633.423,371.027 618.319,368.234 610.038,368.234" style="fill:none;stroke:black;stroke-width:1px;"/>
        </g>
        <g transform="matrix(0.997701,-0.0677689,0.0677689,0.997701,15.4629,28.7542)">
            <path d="M596.315,299.619C612.028,299.619 622.793,317.504 628.335,328.59C630.711,333.341 627.617,329.441 631.182,333.005C631.944,333.768 631.182,336.055 631.944,336.817C632.034,336.908 633.808,338.935 633.469,339.104C629.279,341.199 620.148,337.219 618.221,335.292C614.202,331.273 613.104,335.467 609.276,331.639C604.158,326.521 600.875,321.714 595.553,316.391C593.238,314.077 583.355,308.506 583.355,304.193" style="fill:none;stroke:black;stroke-width:1px;"/>
        </g>
        <g transform="matrix(0.997701,-0.0677689,0.0677689,0.997701,15.4629,28.7542)">
            <path d="M523.126,258.45C516.394,258.45 492.794,247.084 487.29,249.836C481.321,252.821 451.507,257.108 446.604,262.011C445.052,263.563 438.406,261.061 436.693,262.773C434.166,265.301 417.625,277.8 416.391,279.034C414.422,281.003 406.404,281.398 404.956,282.846C398.314,289.488 388.283,291.564 379.797,295.807C377.843,296.784 379.336,298.555 378.272,299.619C377.382,300.508 375.349,300.254 374.46,301.144C373.732,301.872 373.708,304.759 372.935,305.718C361.556,319.854 363.848,327.04 374.823,332.297C382.668,336.055 407.814,349.936 419.441,349.936" style="fill:none;stroke:black;stroke-width:1px;"/>
        </g>
        <g transform="matrix(0.997701,-0.0677689,0.0677689,0.997701,15.4629,28.7542)">
            <path d="M413.342,349.174C414.382,349.174 430.682,341.745 431.639,340.788C433.191,339.236 449.851,340.111 450.699,339.263C451.278,338.684 444.249,337.387 443.837,336.976C439.009,332.147 425.32,325.461 420.491,320.633C419.475,319.616 416.171,320.887 415.155,319.871C414.902,319.618 414.902,314.025 415.155,313.771C421.323,307.604 431.115,304.812 437.907,298.02C443.22,292.707 453.358,291.826 457.65,287.534C457.852,287.333 459.623,287.534 459.937,287.534L470.61,287.534C471.432,287.534 475.37,287.712 475.62,288.213C476.084,289.139 457.119,288.332 463.617,289.104C488.209,292.028 457.358,288.713 458.902,288.713" style="fill:none;stroke:black;stroke-width:1px;"/>
        </g>
        <g transform="matrix(0.621422,-0.0422102,0.0677689,0.997701,174.15,17.9753)">
            <path d="M421.728,279.034C421.728,284.615 410.23,279.859 407.243,282.846C405.251,284.838 398.683,284.371 395.044,284.371L363.787,284.371C360.45,284.371 352.649,283.31 350.826,285.133C348.541,287.419 333.798,284.622 333.291,283.609C332.299,281.624 314.156,284.296 310.419,280.559C310.268,280.407 301.744,280.322 302.795,279.797C317.811,272.289 316.518,294.644 316.518,304.956C316.518,309.272 317.747,315.925 314.994,318.679C313.596,320.076 315.629,324.905 314.231,326.302C311.636,328.898 316.557,336.213 308.895,336.213" style="fill:none;stroke:black;stroke-width:1.2px;"/>
        </g>
        <g transform="matrix(0.621422,-0.0422102,0.0677689,0.997701,174.15,17.9753)">
            <path d="M319.568,340.788C332.19,334.477 369.183,343.075 382.084,343.075" style="fill:none;stroke:black;stroke-width:1.2px;"/>
        </g>
        <g transform="matrix(0.997701,-0.0677689,0.0677689,0.997701,15.4629,28.7542)">
            <path d="M446.887,341.55C451.732,335.767 467.223,336.213 475.095,336.213C476.165,336.213 484.681,335.562 485.006,336.213C487.107,340.414 492.618,339.251 495.68,342.313C498.636,345.269 485.585,350.12 484.244,351.461C474.049,361.657 445.215,356.036 428.59,356.036" style="fill:none;stroke:black;stroke-width:1px;"/>
        </g>
        <g transform="matrix(0.997701,-0.0677689,0.0677689,0.997701,15.4629,28.7542)">
            <path d="M486.531,349.936C488.528,349.936 512.775,354.833 513.977,356.036C515.417,357.476 525.473,356.858 527.7,359.085" style="fill:none;stroke:black;stroke-width:1px;"/>
        </g>
        <g transform="matrix(0.956373,-0.0649618,0.0677689,0.997701,64.5792,30.9084)">
            <path d="M317.71,277.368C300.343,277.368 300.011,267.896 290.675,258.56C289.007,256.892 270.604,236.568 269.205,235.169C249.917,215.881 244.212,207.49 225.794,189.072C224.944,188.222 218.744,189.072 217.408,189.072C209.278,189.072 206.356,190.334 202.525,194.165C196.562,200.128 191.091,208.649 184.99,214.75C182.917,216.823 179.8,236.186 179.563,236.422C176.355,239.631 173.463,249.663 171.594,254.154C167.38,264.277 168.821,273.51 168.821,286.89" style="fill:none;stroke:black;stroke-width:1.02px;"/>
        </g>
        <g transform="matrix(0.956373,-0.0649618,0.0677689,0.997701,64.5792,30.9084)">
            <path d="M274.587,295.044C260.579,295.044 248.214,290.018 240.28,282.084C238.454,280.258 234.25,275.651 232.64,274.041C230.778,272.179 226.218,265.924 225.383,264.064C222.485,257.609 223.531,251.708 219.861,248.038C219.436,247.613 216.181,241.675 216.049,241.938C212.508,249.02 207.6,273.491 202.16,284.371C201.354,285.983 201.433,293.52 199.873,293.52" style="fill:none;stroke:black;stroke-width:1.02px;"/>
        </g>
        <g transform="matrix(0.956373,-0.0649618,0.0677689,0.997701,64.5792,30.9084)">
            <path d="M268.488,293.52L222.745,293.52C216.089,293.52 206.993,294.792 201.398,291.995C194.802,288.697 179.256,293.885 172.427,290.47C166.776,287.645 153.719,293.871 149.555,289.708C148.395,288.548 139.942,289.708 138.119,289.708C130.404,289.708 115.446,294.481 109.149,288.183C108.171,287.206 104.335,288.826 103.05,288.183C97.854,285.585 81.179,285.658 78.653,288.183C78.31,288.526 69.605,288.385 69.504,288.183C68.805,286.784 55.558,284.826 55.558,283.753" style="fill:none;stroke:black;stroke-width:1.02px;"/>
        </g>
        <g transform="matrix(0.956373,-0.0649618,0.0677689,0.997701,64.5792,30.9084)">
            <path d="M76.366,306.48C86.405,306.48 111.354,313.06 121.347,316.391C138.058,321.962 155.517,315.56 172.427,324.015C179.085,327.344 200.373,326.802 203.685,330.114C205.21,331.639 211.309,328.59 212.834,330.114C215.673,332.954 229.998,331.639 234.943,331.639C243.181,331.639 253.977,332.414 260.102,329.352C263.344,327.731 269.205,330.922 271.537,328.59C272.775,327.352 281.791,328.59 283.736,328.59L320.33,328.59" style="fill:none;stroke:black;stroke-width:1.02px;"/>
        </g>
        <g transform="matrix(1.22098,-0.0829351,0.0872035,1.28382,40.3134,-50.2256)">
            <path d="M72.554,288.945C72.431,288.976 72.311,289.056 72.189,289.034C59.657,286.736 54.057,284.735 53.494,278.272C53.328,276.359 53.03,273.995 51.97,272.935C48.793,269.759 55.146,257.052 51.97,253.875C50.097,252.003 47.478,252.904 44.811,252.904L39.548,255.521C39.006,256.604 38.54,259.681 37.484,260.737C33.489,264.732 32.161,274.601 32.907,283.334C33.278,287.683 33.44,299.823 42.269,301.188C69.503,305.398 69.387,301.23 80.779,303.951" style="fill:none;stroke:black;stroke-width:0.8px;"/>
        </g>
        <path d="M648.158,355.273C640.696,355.273 636.04,355.16 631.725,354.272C627.672,353.439 623.92,351.922 618.424,349.174C615.623,347.773 609.886,347.497 607.751,345.362C604.73,342.341 599.622,341.045 597.078,338.501C595.953,337.376 594.962,335.623 594.028,334.689C593.626,334.287 592.503,333.358 592.503,333.926C592.503,339.817 583.026,339.592 580.305,342.313C573.272,349.345 571.28,349.936 558.196,349.936" style="fill:none;stroke:black;stroke-width:1px;"/>
        <path d="M576.493,279.797C581.094,273.86 599.124,276.988 604.701,271.41C606.1,270.011 611.42,272.316 613.088,270.648C614.388,269.348 608.561,271.41 608.513,271.41C606.807,271.41 603.159,274.495 602.414,275.985C600.012,280.79 581.526,277.51 574.968,277.51C573.267,277.51 565.377,278.592 564.295,277.51C563.057,276.272 564.295,267.256 564.295,265.311C564.295,261.896 564.295,259.84 564.295,259.975C564.295,267.055 564.15,272.791 568.107,276.747C568.996,277.637 570.267,278.145 571.156,279.034C572.055,279.933 576.239,279.034 574.968,279.034C563.994,279.034 565.82,273.598 565.82,263.787" style="fill:none;stroke:black;stroke-width:1px;"/>
        <g transform="matrix(1,0,0,1,35.8778,3.05343)">
            <path d="M129.183,330.082C124.401,325.3 126.684,317.956 126.684,308.767" style="fill:none;stroke:black;stroke-width:1px;"/>
        </g>
        <g transform="matrix(1,0,0,1,35.8778,3.05343)">
            <path d="M315.756,335.451C320.54,329.278 328.105,329.201 333.291,324.015C335.547,321.759 339.766,322.877 341.677,320.966C341.724,320.918 345.01,320.203 344.727,320.203C339.127,320.203 326.201,325.768 323.38,328.59C321.584,330.386 317.043,335.451 313.469,335.451" style="fill:none;stroke:black;stroke-width:1px;"/>
        </g>
        <g transform="matrix(1,0,0,1,35.8778,3.05343)">
            <path d="M209.784,295.044C213.396,295.044 228.268,297.519 229.606,298.856C231.832,301.083 246.073,297.332 241.804,297.332" style="fill:none;stroke:black;stroke-width:1px;"/>
        </g>
        <path d="M558.196,199.746C563.221,199.746 564.899,197.617 567.344,195.172C570.267,192.249 592.51,199.752 593.266,200.508C595.714,202.957 606.353,219.568 595.553,219.568" style="fill:none;stroke:black;stroke-width:1px;"/>
        <path d="M600.889,218.806C610.225,218.806 616.166,224.905 623.761,224.905" style="fill:none;stroke:black;stroke-width:1px;"/>
        <path d="M648.158,233.291C642.236,233.291 636.865,231.147 633.672,227.954C632.335,226.617 624.524,228.81 624.524,226.429" style="fill:none;stroke:black;stroke-width:1px;"/>
        <path d="M597.078,220.33C597.078,219.558 600.588,211.793 599.365,211.182C595.477,209.238 595.9,204.667 593.266,202.033C590.978,199.746 587.929,198.221 585.642,195.934L584.117,195.934C582.677,195.934 570.371,192.167 569.632,193.647C568.59,195.73 564.051,200.508 561.245,200.508" style="fill:none;stroke:black;stroke-width:1px;"/>
        <path d="M570.394,195.172C573.368,192.198 581.511,196.252 584.117,193.647C585.133,192.63 588.437,193.901 589.454,192.884C597.213,185.125 611.158,202.39 613.85,205.083C616.117,207.349 613.397,224.905 619.187,224.905" style="fill:none;stroke:black;stroke-width:1px;"/>
        <path d="M622.236,295.807C620.228,295.807 618.224,293.882 617.662,292.757C617.523,292.478 610.819,286.268 613.088,285.133C613.743,284.806 623.582,284.775 623.761,285.133C624.171,285.953 625.639,287.478 626.048,286.658C630.033,278.69 618.462,282.122 619.187,282.846C619.518,283.178 628.228,283.062 628.335,282.846C630.391,278.736 625.875,275.049 624.524,273.698C623.153,272.327 622.25,275.611 622.999,275.985C624.468,276.719 630.381,287.542 627.573,288.945C625.382,290.041 625.436,289.558 623.761,291.233C622.668,292.326 618.094,290.902 619.187,291.995C619.589,292.397 620.712,292.189 620.712,292.757C620.712,294.282 616.819,294.121 616.137,292.757C614.676,289.836 621.151,288.505 622.236,287.421C626.922,282.735 622.052,269.123 617.662,269.123" style="fill:none;stroke:black;stroke-width:1px;"/>
        <g transform="matrix(1,0,0,1,35.8778,3.05343)">
            <path d="M191.487,323.253C197.883,323.253 206.157,322.49 211.309,322.49C214.889,322.49 223.816,323.706 225.794,321.728C226.252,321.27 237.858,321.459 237.992,321.728C239.627,324.997 239.387,334.818 237.23,336.976C234.714,339.492 221.83,337.738 217.408,337.738C216.752,337.738 211.509,338.138 211.309,337.738C210.528,336.176 208.116,334.689 205.972,334.689C203.663,334.689 192.956,336.158 191.487,334.689C190.436,333.638 190.724,330.628 190.724,328.59" style="fill:none;stroke:black;stroke-width:1px;"/>
        </g>
        <path d="M556.671,291.995C556.671,295.002 552.291,299.619 549.047,299.619C545.67,299.619 546.025,300.353 544.473,301.906C543.934,302.445 541.423,301.906 542.186,301.906C542.972,301.906 552.746,305.605 552.859,305.718C553.048,305.907 554.976,309.871 555.146,309.53C555.656,308.51 554.347,304.992 555.146,304.193C555.459,303.88 561.183,299.207 560.483,298.856C559.883,298.556 557.179,299.365 556.671,298.856C554.818,297.004 555.85,295.807 552.859,295.807" style="fill:none;stroke:black;stroke-width:1px;"/>
        <path d="M550.572,305.718C550.099,305.718 552.814,305.809 552.859,305.718C553.783,303.87 552.901,301.906 551.334,301.906" style="fill:none;stroke:black;stroke-width:1px;"/>
        <path d="M655.725,235.878C645.78,235.878 649.7,225.954 656.489,225.954L658.015,225.954C659.088,228.1 659.091,228.87 660.305,231.298C660.788,232.263 663.675,233.588 662.595,233.588C659.511,233.588 653.435,237.611 653.435,231.298" style="fill:none;stroke:black;stroke-width:1px;"/>
    </g>
</svg>
