<?xml version="1.0" encoding="UTF-8" standalone="no"?>
<!DOCTYPE svg PUBLIC "-//W3C//DTD SVG 1.1//EN" "http://www.w3.org/Graphics/SVG/1.1/DTD/svg11.dtd">
<svg width="100%" height="100%" viewBox="0 0 650 200" version="1.1" xmlns="http://www.w3.org/2000/svg" xmlns:xlink="http://www.w3.org/1999/xlink" xml:space="preserve" xmlns:serif="http://www.serif.com/" style="fill-rule:evenodd;clip-rule:evenodd;stroke-linecap:round;stroke-linejoin:round;stroke-miterlimit:1.5;">
    <g id="color" transform="matrix(1,0,0,1,-75,-200)">
        <g transform="matrix(1,0,0,1,27.8072,34.8125)">
            <path d="M215.28,307.984C220.511,307.984 223.302,306.891 228.919,308.289C233.204,309.355 237.548,306.742 238.614,302.457C239.681,298.172 237.068,293.828 232.783,292.762C225.569,290.967 221.998,291.984 215.28,291.984C210.865,291.984 207.28,295.569 207.28,299.984C207.28,304.399 210.865,307.984 215.28,307.984Z" style="fill:rgb(255,116,0);"/>
        </g>
        <g transform="matrix(1,0,0,1,27.8072,34.8125)">
            <path d="M69.189,281.522C69.179,281.203 69.048,277.019 69.321,274.683C69.606,272.24 70.36,270.114 71.332,268.625C73.228,265.719 75.938,264.145 79.501,264.145C81.162,264.145 84.777,265.274 86.842,267.009C88.865,268.708 89.806,270.832 90.086,272.499C90.467,274.763 89.846,278.303 89.259,280.498C89.131,281.397 88.928,282.267 88.652,283.121C88.637,284.198 88.654,285.14 88.727,285.618C89.81,292.735 92.573,296.089 94.808,302.654C95.077,302.968 95.352,303.271 95.63,303.563C98.726,306.821 103.375,308.218 107.571,308.848C111.636,309.458 115.364,309.432 116.983,308.785C120.102,307.54 122.433,307.894 124.083,308.469C126.165,309.195 127.78,310.521 128.913,312.486C129.728,313.899 130.361,316.078 130.282,318.813C130.254,319.781 130.147,321.662 130.073,322.884C132.339,324.949 133.307,328.232 132.275,331.326C130.905,335.437 126.513,337.697 122.393,336.458C122.202,336.532 122.003,336.6 121.797,336.664C121.601,336.725 120.533,337.184 118.591,336.982C118.556,336.978 118.367,336.957 118.052,336.911C117.554,336.838 116.381,336.648 115.029,336.42C112.217,336.116 107.59,335.608 107.16,335.523C102.742,334.639 95.134,332.526 90.782,331.315C88.369,330.644 82.966,328.51 79.82,327.239C77.714,327.683 75.37,327.411 73.061,325.394C72.834,325.195 70.887,323.797 70.271,319.876C70.124,318.944 70.131,318.087 70.255,317.3L70.161,315.713L70.159,315.682C70.018,315.523 69.879,315.359 69.742,315.193C66.682,311.474 64.229,305.805 64.156,296.534C64.128,293.07 65.251,289.838 67.106,286.839C67.673,285.922 68.327,285.032 69.01,284.163L69.061,283.149C69.083,282.835 69.104,282.52 69.126,282.205L69.189,281.522Z" style="fill:white;"/>
        </g>
        <g transform="matrix(1,0,0,1,-10.1043,30.5132)">
            <path d="M574.381,211.034C574.507,209.625 574.994,208.098 576.231,206.575C577.902,204.519 580.285,202.958 583.154,202.038C587.272,200.717 592.657,200.84 595.915,201.247C601.043,201.888 606.173,203.886 611.182,206.514C617.268,209.706 623.184,213.891 628.79,216.538C632.073,218.088 639.025,218.574 643.746,220.42C647.917,222.051 650.928,224.581 652.472,227.552C654.551,231.55 654.314,235.813 652.351,239.803C651.608,241.312 650.57,242.775 649.407,244.105C650.513,244.969 651.625,245.798 652.457,246.792C653.99,248.624 655.132,250.694 655.53,253.237C656.461,254.64 657.073,256.215 657.274,258.02C657.56,260.591 656.836,263.112 655.064,265.321C654.347,266.215 653.323,267.067 652.316,267.793L651.884,268.759C650.315,272.209 648.424,275.597 647.94,280.191C647.333,285.96 643.365,293.331 635.018,291.405C629.557,290.144 626.381,286.326 625.187,281.426C624.836,279.989 624.707,278.445 624.762,276.889C622.192,276.193 619.697,274.507 617.802,271.257C617.466,270.682 617.185,270.081 616.964,269.457C615.595,269.441 614.255,269.389 612.977,269.331C611.745,269.275 609.483,268.924 607.616,268.236C605.315,268.838 603.07,269.571 600.969,270.565C600.937,270.991 600.864,271.366 600.741,271.66C600.006,273.407 598.628,275.901 594.27,276.773C592.504,277.126 589.367,278.525 586.11,279.509C582.85,280.494 579.502,281.127 576.677,281.023C571.114,280.818 566.914,278.352 564.771,273.211C563.532,270.236 563.596,267.224 564.681,264.274C564.945,263.559 565.309,262.842 565.731,262.139C564.796,260.217 564.1,258.082 563.262,256.195C562.524,254.537 561.892,252.904 561.372,251.292C560.334,249.753 559.978,248.056 560.091,246.328C558.173,236.2 560.844,226.728 568.842,216.645C570.998,213.925 572.677,212.273 574.381,211.034Z" style="fill:rgb(246,185,133);"/>
        </g>
        <g transform="matrix(1,0,0,1,-10.1043,30.5132)">
            <path d="M520.073,331.231C520.411,331.078 520.752,330.932 521.097,330.794C525.197,329.154 529.857,331.151 531.496,335.251C533.136,339.351 531.139,344.01 527.04,345.65C522.062,347.641 517.723,351.113 512.585,352.993C501.22,357.151 488.804,358.043 476.785,358.043C472.412,358.043 468.071,358.083 463.716,357.62C463.048,357.549 461.025,357.31 459.477,356.772C457.596,356.118 456.116,355.036 455.159,353.936C453.205,351.691 452.435,349.005 453.347,345.812C453.996,343.541 455.676,341.097 458.905,339.471C462.604,337.608 470.824,336.787 473.031,336.411C486.693,334.086 501.298,334.014 514.657,330.674C516.546,330.202 518.446,330.445 520.073,331.231Z" style="fill:rgb(246,185,133);"/>
        </g>
        <g transform="matrix(1,0,0,1,-10.1043,30.5132)">
            <path d="M636.055,251.753C635.197,252.715 634.539,253.499 634.267,253.939C632.694,256.485 631.761,259.72 630.37,262.579C629.103,265.185 627.516,267.526 625.312,269.274C616.399,276.343 603.006,278.452 590.082,276.408C577.29,274.386 565.081,268.328 558.287,259.762C555.723,256.529 554.905,251.871 555.587,246.536C556.823,236.883 562.962,224.594 565.518,218.288C566.026,217.035 567.016,215.49 567.907,213.927C568.278,213.276 568.785,212.69 568.785,212.111C568.785,209.666 570.77,207.68 573.215,207.68C575.661,207.68 577.646,209.666 577.646,212.111C577.646,213.709 577.077,215.537 576.14,217.338C575.345,218.866 574.226,220.395 573.731,221.617C572.175,225.454 569.149,231.633 566.907,237.974C569.492,237.233 572.159,237.783 575.012,239.453C577.773,241.071 580.913,244.036 584.947,246.35C588.913,248.626 590.905,250.199 592.12,251.69C592.853,251.965 593.523,252.438 594.043,253.099C596.181,255.82 597.761,259.227 598.064,262.744C605.144,260.367 612.214,256.485 617.295,253.56C621.56,251.104 626.121,248.583 629.93,245.342C632.024,242.918 634.59,240.056 635.995,238.5C636.309,237.911 636.644,237.261 636.896,236.878C637.501,235.959 638.172,235.448 638.564,235.209C640.66,233.937 642.41,234.459 643.758,235.563C644.316,236.02 645.432,237.003 645.432,239.226C645.432,239.79 645.063,241.545 643.481,243.508L643.035,244.047C642.954,244.187 642.882,244.306 642.825,244.392C641.475,246.45 639.855,248.104 638.125,249.833C637.462,250.497 636.77,251.136 636.055,251.753ZM619.82,262.319C617.482,263.637 614.846,265.065 612.042,266.445C614.912,265.482 617.543,264.126 619.806,262.331L619.82,262.319ZM569.253,246.534C567.495,247.305 566.357,248.421 566.019,249.796C565.677,251.184 566.141,252.686 567.106,254.019C568.737,256.272 571.795,257.271 574.131,258.616C577.7,260.671 580.631,263.774 584.798,264.549C585.59,264.696 586.409,264.775 587.251,264.793L587.246,264.642L587.229,263.972C586.662,262.156 586.332,260.739 586.047,259.568C585.817,258.617 585.762,257.931 585.267,257.305C584.504,256.341 583.113,255.514 580.537,254.037C577.044,252.033 574.183,249.575 571.67,247.834C571.116,247.45 570.589,247.11 570.074,246.847C569.819,246.717 569.389,246.576 569.253,246.534Z" style="fill:rgb(117,81,63);"/>
        </g>
        <g transform="matrix(1,0,0,1,-10.1043,30.5132)">
            <path d="M534.221,255.663C534.908,255.57 535.601,255.486 536.301,255.409C539.014,255.107 552.456,251.247 555.733,250.668C558.033,250.262 559.555,250.649 560.087,250.805C563.42,251.786 566.294,254.406 566.682,259.431C566.934,262.692 564.385,271.731 563.92,273.336C564.001,274.199 564.808,274.709 565.51,275.21C566.836,276.157 568.421,276.815 569.911,277.274C576.671,279.354 581.05,278.544 585.72,276.936C589.928,275.486 594.315,273.56 599.942,271.952C603.165,271.031 607.872,269.375 612.188,269.055C616.937,268.702 621.308,269.807 624.629,272.675C628.846,276.316 629.551,280.91 628.006,285.553C626.705,289.461 623.087,293.431 620.481,295.255L620.302,295.371L620.839,295.926C628.754,303.982 631.756,310.209 641.848,313.993C652.316,317.919 662.009,322.747 672.536,326.129L672.544,325.845C672.544,323.638 671.447,321.547 670.171,319.569C668.352,316.751 665.984,314.212 663.878,312.107C662.928,311.156 658.645,306.376 657.857,303.571L657.775,303.243C653.802,301.18 646.868,297.378 643.74,293.83C641.383,291.157 640.409,288.297 640.409,285.789C640.408,283.3 641.203,280.844 643.326,278.604C647.317,274.391 653.013,273.447 659.375,275.9C667.645,279.09 677.534,289.285 679.574,292.296C681.008,294.413 683.79,296.225 686.952,298.22C693.476,302.336 701.606,306.501 708.204,311.326C717.914,318.426 724.201,327.167 723.114,337.677C722.659,342.07 720.22,345.631 716.487,348.27C713.333,350.499 709.04,351.966 706.143,353.125C691.172,359.114 675.67,357.422 659.913,358.052C653.37,358.314 645.444,360.102 637.892,360.567C631.562,360.957 625.46,360.456 620.207,358.326C613.774,355.719 610.403,351.607 607.392,347.307C605.279,344.289 603.542,341.009 597.117,340.599C585.684,339.869 577.841,344.956 569.975,348.236C562.627,351.299 555.29,353.228 546.605,351.574C539.111,350.147 535.288,346.773 532.089,342.66C530.246,340.289 528.852,337.423 525.953,334.923C524.556,333.719 522.483,333.212 520.401,332.768C517.273,332.102 514.006,331.849 511.363,331.619C505.583,331.117 501.103,332.537 496.513,334.15C492.56,335.539 488.55,337.089 483.97,338.261C466.638,342.695 449.05,347.739 431.608,351.477L430.106,351.804L429.255,351.996C428.65,352.124 428.294,352.156 428.235,352.161C426.228,352.362 425.046,351.847 424.64,351.695C422.348,350.839 421.13,349.416 420.425,348.072C414.537,347.934 408.471,347.317 403.925,345.568C399.576,343.896 396.236,341.433 394.219,338.115C392.462,339.221 390.278,339.646 388.102,339.125C383.807,338.097 381.155,333.777 382.183,329.483C383.178,325.326 381.906,320.492 380.556,315.92C378.692,309.605 376.378,303.676 375.699,299.552C374.831,294.281 376.244,290.446 378.495,288.114C380.255,286.291 382.778,284.862 386.604,284.795C388.878,284.755 392.161,285.322 396.635,287.022C397.855,286.935 403.613,286.51 406.676,286.093C411.991,285.369 417.318,285.403 422.572,285.618C440.763,275.208 477.915,260.146 496.577,256.175C508.344,253.671 521.147,251.027 532.944,255.172C533.362,255.318 533.789,255.482 534.221,255.663ZM417.279,301.456C416.106,301.45 414.93,301.467 413.753,301.52L413.739,301.979L413.689,302.881L414.761,302.444C415.22,302.271 415.68,302.098 416.139,301.924L417.32,301.511L417.279,301.456Z" style="fill:rgb(181,181,181);"/>
        </g>
        <g transform="matrix(1,0,0,1,27.8072,34.8125)">
            <path d="M241.758,286.942C241.75,288.957 241.522,293.025 239.941,295.105C237.205,298.705 233.842,299.887 229.912,299.692C227.708,299.582 225.052,298.548 222.231,298.024C218.884,297.402 215.487,297.293 213.124,296.441C208.923,294.925 206.185,292.18 205.382,287.36C204.853,284.184 205.172,280.464 206.026,276.656C206.943,272.569 208.495,268.324 209.255,264.98C212.77,249.514 219.038,225.217 228.19,212.579C231.605,207.861 237.33,204.067 243.615,202.304C250.168,200.466 257.197,200.87 262.742,203.88C267.995,206.731 272.195,211.341 275.52,216.806C277.678,220.352 279.464,224.269 281.024,228.106C289.682,235.375 296.148,245.866 300.876,255.793C304.487,258.226 308.579,262.633 310.417,264.18C313.552,266.82 316.736,269.544 319.974,272.248C324.394,275.407 328.469,279.028 332.723,282.414C334.676,283.865 336.647,285.267 338.638,286.597L339.908,287.04C340.802,287.364 340.773,287.354 341.644,287.682L342.191,287.9C342.721,287.962 343.205,288.061 343.57,288.209C344.398,288.545 345.851,289.1 347.357,291.213L347.554,291.421C349.106,293.161 349.944,295.074 350.039,297.144C351.122,300.956 351.599,305.745 351.665,310.593C352.395,312.04 352.969,313.959 353.152,316.577C353.889,327.151 348.467,333.458 340.446,337.005C331.822,340.82 319.32,340.635 312.357,340.099L312.174,340.085C310.867,340.285 309.555,340.462 308.237,340.614C299.356,341.638 290.388,341.121 281.512,342.107C273.199,343.031 264.902,344.829 256.477,344.291L255.531,344.223C254.087,344.34 252.633,344.417 251.169,344.447C238.546,344.705 225.773,341.953 213.228,339.246C203.667,338.372 194.129,337.063 184.625,335.823C180.466,335.281 176.263,335.177 172.077,335.01C171.76,334.997 168.225,334.979 166.218,334.75C159.51,334.762 152.815,334.652 146.155,333.819C141.643,333.255 137.298,332.043 132.882,330.992C132.194,330.828 127.851,329.492 126.299,328.247C123.071,325.658 122.578,322.398 123.286,319.567C123.443,318.938 123.675,318.298 123.998,317.675C122.66,316.247 121.841,314.326 121.841,312.216C121.841,307.801 125.426,304.216 129.841,304.216C140.099,304.216 151.563,308.558 161.843,309.759C162.498,309.326 163.183,309.012 163.862,308.786C172.144,306.025 185.394,307.018 194.124,305.879C203.111,304.707 206.274,302.979 215.151,305.154C219.081,306.117 227.267,304.974 231.412,304.274C239.9,302.84 248.236,302.944 256.462,303.599C267.579,303.267 278.961,303.683 289.93,304.438C279.951,300.171 273.499,294.503 268.727,287.624C262.672,284.759 256.704,281.694 251.06,277.814C248.991,276.391 246.756,273.696 244.604,270.814C244.244,270.332 243.745,269.723 243.258,269.152C242.883,269.781 242.491,270.4 242.08,271.007L242.083,271.565C242.012,274.903 242.679,278.387 243.139,280.801C243.453,282.453 242.528,285.118 241.758,286.942Z" style="fill:rgb(45,45,45);"/>
        </g>
        <g transform="matrix(7.4472,-2.85442,5.46898,14.2686,-5199.46,-2382.4)">
            <path d="M550.075,300.685C550.382,300.685 550.673,300.624 550.978,300.58C551.273,300.538 551.448,300.378 551.367,300.224C551.286,300.07 550.98,299.979 550.684,300.021C550.476,300.051 550.284,300.105 550.075,300.105C549.768,300.105 549.519,300.235 549.519,300.395C549.519,300.555 549.768,300.685 550.075,300.685Z" style="fill:rgb(255,185,236);"/>
        </g>
        <g transform="matrix(1,0,0,1,-10.1043,30.5132)">
            <path d="M605.808,184.933C611.14,181.902 617.449,179.476 623.651,178.327C632.487,176.691 640.957,177.748 646.592,181.675C649.462,183.676 651.714,186.591 653.446,189.983C655.174,193.369 656.34,197.303 657.697,200.357C659.334,204.04 661.432,209.459 662.24,214.609C662.967,219.242 662.615,223.699 660.996,227.24C657.37,235.173 649.061,236 641.914,234.836C636.792,234.002 631.995,232.019 627.231,229.889C623.601,228.265 619.999,226.528 616.117,225.676C613.902,225.189 610.771,225.026 608.068,224.301C604.568,223.361 601.609,221.629 599.637,219.131C597.542,216.476 597.245,213.978 597.496,211.911C597.629,210.819 597.943,209.756 598.467,208.756C595.88,207.728 593.255,206.694 590.411,205.891C583.791,204.024 576.383,204.962 569.579,204.962C565.164,204.962 561.579,201.378 561.579,196.962C561.579,192.547 565.164,188.962 569.579,188.962C577.808,188.962 586.748,188.234 594.754,190.492C595.386,190.67 596.003,190.864 596.609,191.076C597.452,187.393 600.827,184.716 604.737,184.879L605.808,184.933Z" style="fill:rgb(121,88,48);"/>
        </g>
        <g transform="matrix(1,0,0,1,-10.1043,30.5132)">
            <path d="M655.641,227.06L656.711,227.053C659.157,227.053 661.142,229.039 661.142,231.484C661.142,233.929 659.157,235.915 656.711,235.915C655.433,235.915 653.421,235.934 651.993,235.352C650.538,234.758 649.409,233.749 648.736,232.267C647.724,230.041 648.71,227.412 650.936,226.4C652.549,225.667 654.374,225.983 655.641,227.06Z" style="fill:rgb(255,185,236);"/>
        </g>
    </g>
    <g id="Outline" transform="matrix(1,0,0,1,-85.1043,-169.487)">
        <g transform="matrix(0.997701,-0.0677689,0.0677689,0.997701,15.4629,28.7542)">
            <path d="M569.632,200.508C551.96,200.508 543.229,220.812 533.799,230.241C531.476,232.565 533.558,238.869 531.512,240.915C526.016,246.411 526.711,257.461 531.512,262.262C533.137,263.886 533.049,272.948 536.086,275.985C538.374,278.272 545.997,275.222 548.285,277.51C551.518,280.743 567.908,279.797 573.443,279.797C575.476,279.797 583.877,282.323 585.642,280.559C589.391,276.81 597.574,277.013 600.889,273.698C608.123,266.464 614.52,253.206 622.236,245.489C624.013,243.712 623.136,239.877 624.524,237.103C624.962,236.226 625.286,236.531 625.286,235.578L625.286,234.053C625.343,233.997 629.114,221.482 626.811,220.33C621.07,217.46 623.882,208.253 619.949,204.32C617.367,201.738 617.993,197.027 615.375,194.409C614.104,193.139 612.071,192.63 610.801,191.36C609.602,190.161 591.229,191.872 590.216,192.884C588.691,194.409 584.117,192.884 582.592,194.409C578.525,198.476 557.22,202.247 553.621,205.845C552.367,207.1 544.836,212.706 543.71,212.706" style="fill:none;stroke:black;stroke-width:1px;"/>
        </g>
        <path d="M640.534,288.183C631.421,288.183 630.576,280.512 626.048,275.985C625.702,275.639 625.099,267.692 625.286,267.598C629.735,265.374 628.343,261.491 632.147,257.687C636.849,252.986 640.407,247.141 645.108,242.44C645.405,242.143 647.692,242.44 648.158,242.44C655.111,242.44 655.019,247.05 655.019,253.875C655.019,254.532 655.419,259.775 655.019,259.975C649.485,262.742 647.395,262.168 647.395,270.648C647.395,271.304 646.996,276.547 647.395,276.747C648.987,277.543 651.97,276.823 651.97,279.034" style="fill:none;stroke:black;stroke-width:1px;"/>
        <g transform="matrix(0.997701,-0.0677689,0.0677689,0.997701,15.4629,28.7542)">
            <path d="M613.088,287.421C614.955,287.421 631.992,294.889 632.91,295.807C633.798,296.695 634.975,299.508 636.722,300.381C644.567,304.304 651.559,312.169 657.306,317.916C659.177,319.787 664.107,320.143 665.693,321.728C669.176,325.212 673.547,328.821 677.128,332.402C681.424,336.697 682.229,350.463 685.515,353.748C685.743,353.976 685.649,359.781 685.515,359.848C675.968,364.621 661.473,363.541 649.682,367.471C647.126,368.323 642.937,366.27 640.534,367.471C633.423,371.027 618.319,368.234 610.038,368.234" style="fill:none;stroke:black;stroke-width:1px;"/>
        </g>
        <g transform="matrix(0.997701,-0.0677689,0.0677689,0.997701,15.4629,28.7542)">
            <path d="M596.315,299.619C612.028,299.619 622.793,317.504 628.335,328.59C630.711,333.341 634.682,335.698 638.247,339.263C639.009,340.025 638.247,342.313 639.009,343.075C639.099,343.165 640.873,345.192 640.534,345.362C636.344,347.457 627.212,343.477 625.286,341.55C621.267,337.531 613.104,335.467 609.276,331.639C604.158,326.521 600.875,321.714 595.553,316.391C593.238,314.077 583.355,308.506 583.355,304.193" style="fill:none;stroke:black;stroke-width:1px;"/>
        </g>
        <g transform="matrix(0.997701,-0.0677689,0.0677689,0.997701,15.4629,28.7542)">
            <path d="M523.126,258.45C516.394,258.45 492.798,261.797 487.294,264.549C481.325,267.533 455.602,265.745 450.699,270.648C449.147,272.2 442.5,269.698 440.788,271.41C438.26,273.938 417.625,277.8 416.391,279.034C414.422,281.003 406.404,281.398 404.956,282.846C398.314,289.488 388.283,291.564 379.797,295.807C377.843,296.784 379.336,298.555 378.272,299.619C377.382,300.508 375.349,300.254 374.46,301.144C373.732,301.872 373.806,304.847 372.935,305.718C365.487,313.166 361.79,325.83 370.648,334.689C376.799,340.84 407.814,349.936 419.441,349.936" style="fill:none;stroke:black;stroke-width:1px;"/>
        </g>
        <g transform="matrix(0.997701,-0.0677689,0.0677689,0.997701,15.4629,28.7542)">
            <path d="M413.342,349.174C414.382,349.174 430.682,341.745 431.639,340.788C433.191,339.236 449.851,340.111 450.699,339.263C451.278,338.684 444.249,337.387 443.837,336.976C439.009,332.147 428.844,332.656 424.015,327.827C422.999,326.811 419.695,328.081 418.679,327.065C418.425,326.812 418.425,321.219 418.679,320.966C424.846,314.798 428.659,309.46 435.451,302.668C440.764,297.355 465.467,296.286 469.759,291.995C469.96,291.793 471.732,291.995 472.046,291.995L482.719,291.995C483.541,291.995 490.093,291.494 490.343,291.995C491.352,294.013 493.587,297.332 496.442,297.332" style="fill:none;stroke:black;stroke-width:1px;"/>
        </g>
        <g transform="matrix(0.621422,-0.0422102,0.0677689,0.997701,174.15,17.9753)">
            <path d="M421.728,279.034C421.728,284.615 410.23,279.859 407.243,282.846C405.251,284.838 398.683,284.371 395.044,284.371L363.787,284.371C360.45,284.371 352.649,283.31 350.826,285.133C348.541,287.419 333.798,284.622 333.291,283.609C332.299,281.624 314.156,284.296 310.419,280.559C310.268,280.407 301.744,280.322 302.795,279.797C317.811,272.289 316.518,294.644 316.518,304.956C316.518,309.272 317.747,315.925 314.994,318.679C313.596,320.076 315.629,324.905 314.231,326.302C311.636,328.898 316.557,336.213 308.895,336.213" style="fill:none;stroke:black;stroke-width:1.2px;"/>
        </g>
        <g transform="matrix(0.621422,-0.0422102,0.0677689,0.997701,174.15,17.9753)">
            <path d="M319.568,340.788C332.19,334.477 369.183,343.075 382.084,343.075" style="fill:none;stroke:black;stroke-width:1.2px;"/>
        </g>
        <g transform="matrix(0.997701,-0.0677689,0.0677689,0.997701,15.4629,28.7542)">
            <path d="M446.887,341.55C451.732,335.767 467.223,336.213 475.095,336.213C476.165,336.213 484.681,335.562 485.006,336.213C487.107,340.414 492.618,339.251 495.68,342.313C498.636,345.269 485.585,350.12 484.244,351.461C474.049,361.657 445.215,356.036 428.59,356.036" style="fill:none;stroke:black;stroke-width:1px;"/>
        </g>
        <g transform="matrix(0.997701,-0.0677689,0.0677689,0.997701,15.4629,28.7542)">
            <path d="M486.531,349.936C488.528,349.936 512.775,354.833 513.977,356.036C515.417,357.476 525.473,356.858 527.7,359.085" style="fill:none;stroke:black;stroke-width:1px;"/>
        </g>
        <g transform="matrix(0.956373,-0.0649618,0.0677689,0.997701,64.5792,30.9084)">
            <path d="M316.518,282.084C299.152,282.084 288.497,271.598 279.161,262.262C277.493,260.594 277.511,257.562 276.112,256.163C256.823,236.874 244.212,207.49 225.794,189.072C224.944,188.222 218.744,189.072 217.408,189.072C209.278,189.072 206.356,190.334 202.525,194.165C196.562,200.128 191.091,208.649 184.99,214.75C182.917,216.823 179.8,236.186 179.563,236.422C176.355,239.631 173.463,249.663 171.594,254.154C167.38,264.277 168.821,273.51 168.821,286.89" style="fill:none;stroke:black;stroke-width:1.02px;"/>
        </g>
        <g transform="matrix(0.956373,-0.0649618,0.0677689,0.997701,64.5792,30.9084)">
            <path d="M274.587,295.044C260.579,295.044 248.214,290.018 240.28,282.084C238.454,280.258 233.504,279.882 231.893,278.272C230.032,276.41 226.905,273.109 225.032,272.173C218.988,269.151 217.266,261.358 213.596,257.687C213.171,257.263 209.916,251.325 209.784,251.588C206.243,258.67 207.6,273.491 202.16,284.371C201.354,285.983 201.433,293.52 199.873,293.52" style="fill:none;stroke:black;stroke-width:1.02px;"/>
        </g>
        <g transform="matrix(0.956373,-0.0649618,0.0677689,0.997701,64.5792,30.9084)">
            <path d="M268.488,293.52L222.745,293.52C216.089,293.52 206.993,294.792 201.398,291.995C194.802,288.697 179.256,293.885 172.427,290.47C166.776,287.645 153.719,293.871 149.555,289.708C148.395,288.548 139.942,289.708 138.119,289.708C130.404,289.708 115.446,294.481 109.149,288.183C108.171,287.206 104.335,288.826 103.05,288.183C97.854,285.585 81.179,285.658 78.653,288.183C78.31,288.526 69.605,288.385 69.504,288.183C68.805,286.784 61.118,287.731 61.118,286.658" style="fill:none;stroke:black;stroke-width:1.02px;"/>
        </g>
        <g transform="matrix(0.956373,-0.0649618,0.0677689,0.997701,64.5792,30.9084)">
            <path d="M76.366,306.48C86.405,306.48 111.354,313.06 121.347,316.391C138.058,321.962 155.517,315.56 172.427,324.015C179.085,327.344 200.373,326.802 203.685,330.114C205.21,331.639 211.309,328.59 212.834,330.114C215.673,332.954 229.998,331.639 234.943,331.639C243.181,331.639 253.977,332.414 260.102,329.352C263.344,327.731 269.205,330.922 271.537,328.59C272.775,327.352 281.791,328.59 283.736,328.59L320.33,328.59" style="fill:none;stroke:black;stroke-width:1.02px;"/>
        </g>
        <g transform="matrix(1.22098,-0.0829351,0.0872035,1.28382,40.3134,-50.2256)">
            <path d="M72.554,288.945C64.426,288.945 58.072,282.85 53.494,278.272C52.137,276.915 53.03,273.995 51.97,272.935C48.793,269.759 55.146,257.052 51.97,253.875C50.097,252.003 43.201,251.588 40.534,251.588L39.009,251.588C38.468,252.671 38.54,259.681 37.484,260.737C33.489,264.732 28.086,282.596 34.435,288.945C36.213,290.724 34.18,296.315 35.959,298.094C40.222,302.357 74.295,309.53 84.752,309.53" style="fill:none;stroke:black;stroke-width:0.8px;"/>
        </g>
        <path d="M648.158,355.273C640.696,355.273 636.04,355.16 631.725,354.272C627.672,353.439 623.92,351.922 618.424,349.174C615.623,347.773 609.886,347.497 607.751,345.362C604.73,342.341 599.622,341.045 597.078,338.501C595.953,337.376 594.962,335.623 594.028,334.689C593.626,334.287 592.503,333.358 592.503,333.926C592.503,339.817 583.026,339.592 580.305,342.313C573.272,349.345 571.28,349.936 558.196,349.936" style="fill:none;stroke:black;stroke-width:1px;"/>
        <path d="M576.493,279.797C581.094,273.86 599.124,276.988 604.701,271.41C606.1,270.011 611.42,272.316 613.088,270.648C614.388,269.348 608.561,271.41 608.513,271.41C606.807,271.41 603.159,274.495 602.414,275.985C600.012,280.79 581.526,277.51 574.968,277.51C573.267,277.51 565.377,278.592 564.295,277.51C563.057,276.272 564.295,267.256 564.295,265.311C564.295,261.896 564.295,259.84 564.295,259.975C564.295,267.055 564.15,272.791 568.107,276.747C568.996,277.637 570.267,278.145 571.156,279.034C572.055,279.933 576.239,279.034 574.968,279.034C563.994,279.034 565.82,273.598 565.82,263.787" style="fill:none;stroke:black;stroke-width:1px;"/>
        <g transform="matrix(1,0,0,1,35.8778,3.05343)">
            <path d="M134.307,339.263C129.525,334.48 126.684,317.956 126.684,308.767" style="fill:none;stroke:black;stroke-width:1px;"/>
        </g>
        <g transform="matrix(1,0,0,1,35.8778,3.05343)">
            <path d="M315.756,335.451C320.54,329.278 328.105,329.201 333.291,324.015C335.547,321.759 339.766,322.877 341.677,320.966C341.724,320.918 345.01,320.203 344.727,320.203C339.127,320.203 326.201,325.768 323.38,328.59C321.584,330.386 317.043,335.451 313.469,335.451" style="fill:none;stroke:black;stroke-width:1px;"/>
        </g>
        <g transform="matrix(1,0,0,1,35.8778,3.05343)">
            <path d="M209.784,295.044C213.396,295.044 228.268,297.519 229.606,298.856C231.832,301.083 246.073,297.332 241.804,297.332" style="fill:none;stroke:black;stroke-width:1px;"/>
        </g>
        <path d="M558.196,199.746C563.221,199.746 564.899,197.617 567.344,195.172C570.267,192.249 592.51,199.752 593.266,200.508C595.714,202.957 606.353,219.568 595.553,219.568" style="fill:none;stroke:black;stroke-width:1px;"/>
        <path d="M600.889,218.806C610.225,218.806 616.166,224.905 623.761,224.905" style="fill:none;stroke:black;stroke-width:1px;"/>
        <path d="M648.158,233.291C642.236,233.291 636.865,231.147 633.672,227.954C632.335,226.617 624.524,228.81 624.524,226.429" style="fill:none;stroke:black;stroke-width:1px;"/>
        <path d="M597.078,220.33C597.078,219.558 600.588,211.793 599.365,211.182C595.477,209.238 595.9,204.667 593.266,202.033C590.978,199.746 587.929,198.221 585.642,195.934L584.117,195.934C582.677,195.934 570.371,192.167 569.632,193.647C568.59,195.73 564.051,200.508 561.245,200.508" style="fill:none;stroke:black;stroke-width:1px;"/>
        <path d="M570.394,195.172C573.368,192.198 581.511,196.252 584.117,193.647C585.133,192.63 588.437,193.901 589.454,192.884C597.213,185.125 611.158,202.39 613.85,205.083C616.117,207.349 613.397,224.905 619.187,224.905" style="fill:none;stroke:black;stroke-width:1px;"/>
        <path d="M622.236,295.807C620.228,295.807 618.224,293.882 617.662,292.757C617.523,292.478 610.819,286.268 613.088,285.133C613.743,284.806 623.582,284.775 623.761,285.133C624.171,285.953 625.639,287.478 626.048,286.658C630.033,278.69 618.462,282.122 619.187,282.846C619.518,283.178 628.228,283.062 628.335,282.846C630.391,278.736 625.875,275.049 624.524,273.698C623.153,272.327 622.25,275.611 622.999,275.985C624.468,276.719 630.381,287.542 627.573,288.945C625.382,290.041 625.436,289.558 623.761,291.233C622.668,292.326 618.094,290.902 619.187,291.995C619.589,292.397 620.712,292.189 620.712,292.757C620.712,294.282 616.819,294.121 616.137,292.757C614.676,289.836 621.151,288.505 622.236,287.421C626.922,282.735 622.052,269.123 617.662,269.123" style="fill:none;stroke:black;stroke-width:1px;"/>
        <path d="M552.097,250.826C552.097,253.707 547.847,258.231 551.334,259.975C552.221,260.418 551.334,268.838 551.334,268.361C551.334,264.386 548.285,261.98 548.285,256.163C548.285,255.909 548.057,255.514 548.285,255.4C549.202,254.942 550.053,253.113 550.572,253.113C551.332,253.113 553.995,251.775 553.621,251.588C550.456,250.006 547.522,257.401 547.522,259.975L547.522,264.549C547.522,265.311 547.522,267.598 547.522,266.836C547.522,264.606 546.289,264.84 545.235,263.787C543.837,262.389 546.633,256.798 545.235,255.4C543.049,253.214 537.981,257.317 537.611,257.687C537.564,257.735 534.278,258.45 534.562,258.45C539.263,258.45 541.446,260.737 544.473,260.737C545.796,260.737 552.515,263.577 550.572,264.549C547.967,265.851 537.436,260.562 536.086,259.212C535.197,258.323 532.402,259.339 531.512,258.45C530.987,257.925 521.815,257.687 521.601,257.687C518.185,257.687 516.129,257.687 516.264,257.687C521.02,257.687 531.662,255.55 535.324,259.212C536.981,260.869 544.528,260.737 542.186,260.737C526.879,260.737 516.479,258.335 500.902,258.335C499.538,258.335 488.626,265.311 486.531,265.311" style="fill:none;stroke:black;stroke-width:1px;"/>
        <g transform="matrix(1,0,0,1,35.8778,3.05343)">
            <path d="M191.487,323.253C197.883,323.253 206.157,322.49 211.309,322.49C214.889,322.49 223.816,323.706 225.794,321.728C226.252,321.27 237.858,321.459 237.992,321.728C239.627,324.997 239.387,334.818 237.23,336.976C234.714,339.492 221.83,337.738 217.408,337.738C216.752,337.738 211.509,338.138 211.309,337.738C210.528,336.176 208.116,334.689 205.972,334.689C203.663,334.689 192.956,336.158 191.487,334.689C190.436,333.638 190.724,330.628 190.724,328.59" style="fill:none;stroke:black;stroke-width:1px;"/>
        </g>
        <path d="M556.671,291.995C556.671,295.002 552.291,299.619 549.047,299.619C545.67,299.619 546.025,300.353 544.473,301.906C543.934,302.445 541.423,301.906 542.186,301.906C542.972,301.906 552.746,305.605 552.859,305.718C553.048,305.907 554.976,309.871 555.146,309.53C555.656,308.51 554.347,304.992 555.146,304.193C555.459,303.88 561.183,299.207 560.483,298.856C559.883,298.556 557.179,299.365 556.671,298.856C554.818,297.004 555.85,295.807 552.859,295.807" style="fill:none;stroke:black;stroke-width:1px;"/>
        <path d="M550.572,305.718C550.099,305.718 552.814,305.809 552.859,305.718C553.783,303.87 552.901,301.906 551.334,301.906" style="fill:none;stroke:black;stroke-width:1px;"/>
        <path d="M655.725,235.878C645.78,235.878 649.7,225.954 656.489,225.954L658.015,225.954C659.088,228.1 659.091,228.87 660.305,231.298C660.788,232.263 663.675,233.588 662.595,233.588C659.511,233.588 653.435,237.611 653.435,231.298" style="fill:none;stroke:black;stroke-width:1px;"/>
    </g>
</svg>
