<?xml version="1.0" encoding="UTF-8" standalone="no"?>
<!DOCTYPE svg PUBLIC "-//W3C//DTD SVG 1.1//EN" "http://www.w3.org/Graphics/SVG/1.1/DTD/svg11.dtd">
<svg width="100%" height="100%" viewBox="0 0 650 200" version="1.1" xmlns="http://www.w3.org/2000/svg" xmlns:xlink="http://www.w3.org/1999/xlink" xml:space="preserve" xmlns:serif="http://www.serif.com/" style="fill-rule:evenodd;clip-rule:evenodd;stroke-linecap:round;stroke-linejoin:round;stroke-miterlimit:1.5;">
    <g id="color" transform="matrix(1,0,0,1,-75,-200)">
        <g id="sock-orange" serif:id="sock orange" transform="matrix(1,0,0,1,75,200)">
            <path d="M159.766,128.459C159.766,128.459 176.022,129.365 180.362,132.601C182.28,134.031 192.059,131.929 192.059,131.929L191.612,139.485C191.612,139.485 186.946,138.479 177.116,139.988C166.397,141.634 160.549,139.373 160.549,139.373L159.766,128.459" style="fill:rgb(255,116,0);"/>
        </g>
        <g id="sock-white" serif:id="sock white" transform="matrix(1,0,0,1,75,200)">
            <path d="M77.375,142.986L65.482,144.385L52.46,141.318C52.46,141.318 46.494,136.3 44.756,132.754C43.715,130.631 43.383,127.591 42.126,126.165C39.226,122.874 42.808,111.323 42.212,105.308C41.482,97.951 32.338,101.205 32.338,101.205L26.042,104.965L23.855,111.699C23.855,111.699 18.485,115.235 20.357,133.561C20.825,138.138 21.97,143.665 21.97,143.665C21.97,143.665 21.513,157.161 28,161.55C32.34,164.486 54.224,166.188 63.296,163.638C74.41,160.515 78.715,161.755 78.715,161.755C78.715,161.755 77.175,158.493 77.025,156.397C76.802,153.268 77.375,142.986 77.375,142.986Z" style="fill:white;"/>
        </g>
        <g id="skin-face" serif:id="skin face" transform="matrix(1,0,0,1,-10.1043,30.5132)">
            <path d="M638.6,288.215C632.979,287.163 629.099,280.199 627.772,278.408C625.71,275.623 624.955,271.744 625.069,267.515C626.354,266.953 629.305,264.162 628.466,264.314C627.285,264.528 621.799,266.169 618.343,269.203C616.749,269.286 612.993,270.041 608.211,271.073C607.85,270.996 606.05,269.55 605.394,270.9C603.323,275.163 581.627,275.697 580.384,277.344C580.003,277.848 573.22,277.225 569.551,277.585C566.833,277.852 564.491,273.775 566.281,263.299C566.319,263.076 565.338,256.317 563.82,254.74C560.248,251.031 557.936,246.185 559.372,238.714C560.108,234.879 564.158,232.41 562.762,225.312C562.171,222.307 564.772,221.376 565.988,219.536C569.079,214.861 578.539,198.906 583.977,195.413C589.65,192.607 650.755,233.852 650.755,233.852L645.44,242.314C647.028,242.377 649.373,242.646 650.516,242.746C655.782,243.206 654.755,251.802 655.044,260.241C655.062,260.772 648.014,260.695 647.455,268.282C647.248,271.104 647.042,273.342 646.595,277.17C646.613,277.725 642.703,288.983 638.6,288.215Z" style="fill:rgb(246,185,133);"/>
        </g>
        <g id="skin-hand" serif:id="skin hand" transform="matrix(1,0,0,1,-10.1043,30.5132)">
            <path d="M517.969,331.052C518.307,330.899 521.678,330.937 521.94,331.201C527.017,336.32 531.801,333.714 533.556,337.4C534.286,338.934 533.048,339.673 529.069,342.642C521.562,345.746 522.976,348.917 513.984,351.804C502.009,355.649 482.647,354.195 468.11,355.105C463.536,355.391 461.74,352.153 452.787,349.24C450.541,348.509 461.442,344.949 469.875,339.158C471.503,338.04 485.464,338.022 487.404,336.904C498.424,330.549 516.118,332.818 517.969,331.052Z" style="fill:rgb(246,185,133);"/>
        </g>
        <g id="beard" transform="matrix(1,0,0,1,-10.1043,30.5132)">
            <path d="M559.11,245.734C559.208,242.426 558.88,236.913 560.763,234.837C564.398,230.827 561.9,224.557 563.223,222.71C564.976,220.263 578.1,201.961 581.076,198.61C582.7,196.782 594.366,192.732 585.906,200.202C580.531,204.947 574.569,219.548 573.731,221.617C572.527,224.587 569.594,230.209 568.767,235.001L568.292,237.7C570.445,237.463 572.665,238.079 575.012,239.453C577.773,241.071 580.913,244.036 584.947,246.35C588.913,248.626 590.905,250.199 592.12,251.69C592.853,251.965 593.523,252.438 594.043,253.099C595.237,254.618 596.256,256.352 596.977,258.2C597.381,258.274 597.803,258.382 598.245,258.528C600.747,259.353 605.311,258.714 609.746,257.85C612.393,257.335 614.569,257.899 618.063,255.913C621.316,254.064 626.055,249.713 627.931,247.838C629.336,246.432 634.836,240.692 635.929,239.018C638.575,234.966 641.512,223.279 641.512,224.477C641.512,224.847 652.266,231.211 651.956,232.015C651.768,232.503 651.387,233.604 650.457,234.838C646.917,239.535 641.296,246.021 640.282,247.663C637.138,252.753 631.037,256.307 627.671,265.469C626.66,265.96 623.143,266.58 622.001,267.041C620.459,267.664 619.484,269.289 617.613,269.488C612.615,270.018 608.676,271.509 605.558,271.019C602.267,273.072 598.334,273.475 594.891,273.652C594.295,274.078 593.738,274.231 593.478,274.303C592.151,274.668 590.935,274.508 589.849,273.743C587.38,273.701 584.953,273.523 582.615,273.192C572.214,271.718 567.826,275.245 563.893,266.891C561.494,263.372 558.556,251.619 559.449,247.993C559.631,247.255 558.79,246.442 559.11,245.734ZM569.253,246.534C568.214,246.989 567.392,247.565 566.825,248.245C566.681,250.548 566.747,252.651 567.388,254.378C569.071,256.383 571.924,257.345 574.131,258.616C576.315,259.874 579.267,261.541 582.212,262.52C583.66,263.002 585.089,263.359 586.351,263.173C586.564,263.141 586.764,263.098 586.95,263.045C586.547,261.663 586.281,260.532 586.047,259.568C585.817,258.617 585.762,257.931 585.267,257.305C584.504,256.341 583.113,255.514 580.537,254.037C577.044,252.033 574.183,249.575 571.67,247.834C571.116,247.45 570.589,247.11 570.074,246.847C569.819,246.717 569.389,246.576 569.253,246.534Z" style="fill:rgb(117,81,63);"/>
        </g>
        <g id="pants" transform="matrix(1,0,0,1,75,200)">
            <path d="M303.628,117.475C304.558,121.313 308.551,149.478 306.286,153.435C306.563,158.488 306.227,164.147 306.426,168.661C301.015,170.035 271.318,170.66 262.015,171.27C260.58,173.061 253.894,172.703 252.566,172.513C246.686,177.199 206.868,178.919 206.174,177.398C205.391,175.681 198.975,177.52 197.411,178.119C191.439,174.982 186.214,175.537 168.523,174.483C153.724,166.735 130.994,171.804 122.678,170.475C104.306,166.487 85.433,163.046 79.037,162.108C75.68,160.977 77.43,146.433 77.683,142.352C82.976,141.014 92.419,140.175 98.274,142.337C99.945,142.319 101.786,141.885 102.942,141.47C110.041,149.281 130.94,138.979 141.766,140.637C147.985,145.273 156.903,137.043 164.351,140.085C169.014,141.99 187.03,137.355 191.12,139.439C194.126,140.971 203.697,140.857 214.552,139.765C225.657,138.648 238.423,138.476 248.554,137.082C238.537,137.939 218.385,119.736 212.874,109.972C212.029,108.475 209.773,102.119 208.781,97.614C208.468,96.193 206.265,94.995 202.512,88.847C200.472,92.868 194.82,126.765 192.235,131.747C187.007,133.209 182.053,133.913 180.166,132.398C178.044,130.694 167.507,128.913 159.704,128.703C158.859,123.658 159.127,111.377 159.742,107.691C160.116,105.451 162.695,93.24 167.201,85.612C168.614,73.582 169.741,67.673 170.219,64.609C176.557,56.3 184.305,41.983 191.067,37.891C193.004,36.719 204.944,35.039 207.748,35.287C222.851,49.041 257.12,82.498 277.723,103.398C284.506,110.279 287.292,119.21 303.628,117.475" style="fill:rgb(45,45,45);"/>
        </g>
        <g id="shirt" transform="matrix(1,0,0,1,75,200)">
            <path d="M300.504,115.069C300.753,115.529 296.345,117.602 297.008,117.654C298.288,117.755 303.21,117.664 303.224,117.699C306.333,125.466 306.688,141.015 307.13,146.245C307.669,152.619 305.897,153.515 306.486,157.87C306.872,160.716 305.537,162.118 306.485,168.161C306.671,169.352 305.494,170.415 303.62,171.056C314.462,170.599 315.016,171.082 322.215,171.836C328.79,172.524 336.174,173.365 348.213,174.658C356.468,175.545 358.947,178.717 367.691,179.24C394.425,163.624 383.73,171.104 401.547,167.626C403.427,166.578 405.981,162.666 437.068,161.885C438.813,166.768 448.135,164.273 448.632,167.879C449.087,171.182 438.733,175.229 439.717,175.372C467.245,179.347 468.348,180.341 474.378,180.47C483.469,179.238 485.112,178.761 488.116,177.818C492.419,179.64 517.917,179.201 525.66,177.313C532.999,180.763 540.94,183.925 548.191,185.023C558.579,186.597 567.353,185.213 569.239,185.213C573.955,185.213 583.623,186.738 596.15,182.143C610.24,182.458 600.187,179.015 622.11,179.966C636.186,180.577 631.801,176.508 631.842,171.231C630.367,170.273 625.344,155.893 623.878,152.824C621.66,150.383 615.056,140.425 611.156,135.575C605.36,133.845 602.51,134.063 596.718,125.689C588.861,114.327 588.341,119.649 582.004,111.517C576.187,109.194 564.766,104.988 562.373,104.658C558.922,107.853 553.134,115.271 554.957,119.136C555.278,119.816 556.75,120.145 557.527,120.581C568.633,126.814 579.546,144.505 581.814,148.02C583.39,148.974 582.777,151.538 585.168,155.034C575.387,156.187 572.093,147.084 569.441,148.337C565.519,150.19 562.895,143.989 551.161,138.695C547.979,137.259 545.584,134.164 543.176,132.544C538.2,129.196 534.628,127.263 534.178,125.066C534.02,124.297 536.695,123.418 535.513,122.74C534.969,122.428 539.734,121.311 541.777,119.987C543.757,118.703 543.401,114.276 543.436,112.657C543.442,112.356 543.224,108.858 543.147,108.524C542.61,106.209 539.75,103.575 538.232,104.074C536.628,104.6 534.892,100.78 534.602,100.57C530.816,97.828 511.606,104.155 508.426,105.051C502.187,106.811 488.315,108.704 486.12,108.349C482.569,107.775 480.11,103.535 480.339,100.283C480.855,92.962 475.48,68.873 463.726,76.353C455.902,81.332 448.731,74.851 435.824,74.841C431.225,76.026 419.315,80.552 413.57,82.304C398.145,87.01 393.389,92.157 384.742,91.537C381.356,94.67 372.262,102.528 363.05,110.796C347.249,114.588 359.272,114.5 345.425,116.226C340.564,115.984 336.744,116.615 334.106,116.699C321.855,117.086 329.96,119.641 321.948,119.545C310.428,117.931 318.924,116.703 303.548,116.803C302.413,116.811 301.926,115.026 300.504,115.069Z" style="fill:rgb(181,181,181);"/>
        </g>
        <g id="pink" transform="matrix(7.4472,-2.85442,5.46898,14.2686,-5199.46,-2382.4)">
            <path d="M550.299,300.642C550.472,301.272 550.29,300.553 550.958,300.516C551.196,300.48 551.153,300.472 551.504,300.384C551.367,300.32 551.008,300.445 550.947,300.084C549.828,300.338 550.038,299.939 549.437,300.225C549.795,300.435 549.913,300.379 550.299,300.642Z" style="fill:rgb(255,185,236);"/>
        </g>
        <g id="hat" transform="matrix(1,0,0,1,-10.1043,30.5132)">
            <path d="M605.808,184.933C611.14,181.902 617.449,179.476 623.651,178.327C632.487,176.691 640.957,177.748 646.592,181.675C649.462,183.676 651.714,186.591 653.446,189.983C655.174,193.369 656.34,197.303 657.697,200.357C659.334,204.04 661.432,209.459 662.24,214.609C662.967,219.242 662.615,223.699 660.996,227.24C657.37,235.173 647.444,233.862 642.124,232.737C631.421,227.954 636.611,227.131 625.342,227.37C622.272,223.718 622.588,225.339 618.706,224.487C616.491,224 609.171,217.292 597.186,219.299C605.04,216.649 595.067,202.739 593.258,200.435C588.476,198.539 583.027,197.19 583.027,197.19C583.027,197.19 580.262,199.67 576.396,203.987C569.795,204.424 557.327,201.195 561.404,199.498C565.077,197.969 567.7,193.684 572.115,193.684C580.344,193.684 586.748,188.234 594.754,190.492C595.386,190.67 595.957,189.764 596.563,189.976C598.827,187.026 600.827,184.716 604.737,184.879L605.808,184.933Z" style="fill:rgb(121,88,48);"/>
        </g>
        <g id="pink1" serif:id="pink" transform="matrix(1,0,0,1,75,200)">
            <path d="M572.99,56.518C572.99,56.518 574.166,59.909 574.96,61.139C575.67,62.238 577.754,63.897 577.754,63.897L570.841,65.723L570.698,66.189C570.698,66.189 565.217,66.941 564.752,62.5C564.286,58.058 569.265,56.028 572.99,56.518" style="fill:rgb(255,185,236);"/>
        </g>
    </g>
    <g id="Outline" transform="matrix(1,0,0,1,-85.1043,-169.487)">
        <g transform="matrix(0.997701,-0.0677689,0.0677689,0.997701,15.4629,28.7542)">
            <path d="M555.007,206.381C547.718,210.766 543.229,220.812 533.799,230.241C531.476,232.565 533.558,238.869 531.512,240.915C526.016,246.411 526.711,257.461 531.512,262.262C533.137,263.886 533.049,272.948 536.086,275.985C538.374,278.272 545.997,275.222 548.285,277.51C551.518,280.743 567.908,279.797 573.443,279.797C575.476,279.797 583.877,282.323 585.642,280.559C589.391,276.81 595.304,279.142 595.638,276.348C596.242,271.29 612.842,256.28 619.449,248.455C620.288,247.462 617.341,248.317 618.705,245.68C623.797,235.829 628.055,252.447 629.744,243.123C629.919,242.158 631.396,239.488 631.396,238.535L631.396,237.01C633.821,236.939 632.544,221.82 630.776,219.947C628.688,217.736 628.194,205.259 624.261,201.326C621.679,198.744 620.874,196.949 618.256,194.331C616.985,193.061 612.071,192.63 610.801,191.36C609.602,190.161 593.341,189.002 580.042,195.48C578.103,196.424 573.943,195.48 572.418,197.005C571.977,197.446 569.135,199.825 569.021,200.516" style="fill:none;stroke:black;stroke-width:1px;"/>
        </g>
        <path d="M640.534,288.183C631.421,288.183 630.576,280.512 626.048,275.985C625.702,275.639 625.099,267.692 625.286,267.598C629.735,265.374 628.343,261.491 632.147,257.687C636.849,252.986 640.407,247.141 645.108,242.44C645.405,242.143 647.692,242.44 648.158,242.44C655.111,242.44 655.019,247.05 655.019,253.875C655.019,254.532 655.419,259.775 655.019,259.975C652.655,261.157 650.919,261.73 649.706,262.659C648.081,263.904 647.395,265.791 647.395,270.648C647.395,271.304 646.996,276.547 647.395,276.747C648.987,277.543 651.97,276.823 651.97,279.034" style="fill:none;stroke:black;stroke-width:1px;"/>
        <g transform="matrix(0.997701,-0.0677689,0.0677689,0.997701,15.4629,28.7542)">
            <path d="M613.088,287.421C614.955,287.421 631.992,294.889 632.91,295.807C633.798,296.695 634.975,299.508 636.722,300.381C644.567,304.304 646.712,312.642 652.459,318.389C654.33,320.26 659.26,320.616 660.845,322.201C664.329,325.685 666.777,333.978 670.358,337.559C674.654,341.855 675.459,355.62 678.744,358.906C678.972,359.134 678.878,364.938 678.744,365.005C669.198,369.778 661.473,363.541 649.682,367.471C647.126,368.323 642.937,366.27 640.534,367.471C633.423,371.027 618.319,368.234 610.038,368.234" style="fill:none;stroke:black;stroke-width:1px;"/>
        </g>
        <g transform="matrix(0.997701,-0.0677689,0.0677689,0.997701,15.4629,28.7542)">
            <path d="M596.315,299.619C612.028,299.619 622.793,317.504 628.335,328.59C630.711,333.341 627.617,329.441 631.182,333.005C631.944,333.768 631.182,336.055 631.944,336.817C632.034,336.908 633.808,338.935 633.469,339.104C629.279,341.199 623.166,335.461 621.239,333.534C617.22,329.515 616.122,333.709 612.294,329.881C607.176,324.763 600.875,321.714 595.553,316.391C593.238,314.077 583.355,308.506 583.355,304.193" style="fill:none;stroke:black;stroke-width:1px;"/>
        </g>
        <g transform="matrix(0.997701,-0.0677689,0.0677689,0.997701,15.4629,28.7542)">
            <path d="M523.126,258.45C516.394,258.45 492.794,247.084 487.29,249.836C481.321,252.821 451.507,257.108 446.604,262.011C445.052,263.563 438.406,261.061 436.693,262.773C434.166,265.301 417.625,277.8 416.391,279.034C414.422,281.003 406.404,281.398 404.956,282.846C398.314,289.488 388.283,291.564 379.797,295.807C377.843,296.784 379.336,298.555 378.272,299.619C377.382,300.508 375.349,300.254 374.46,301.144C373.732,301.872 373.708,304.759 372.935,305.718C361.556,319.854 363.848,327.04 374.823,332.297C382.668,336.055 407.814,349.936 419.441,349.936" style="fill:none;stroke:black;stroke-width:1px;"/>
        </g>
        <g transform="matrix(0.997701,-0.0677689,0.0677689,0.997701,15.4629,28.7542)">
            <path d="M413.342,349.174C414.382,349.174 430.682,341.745 431.639,340.788C433.191,339.236 449.851,340.111 450.699,339.263C451.278,338.684 444.249,337.387 443.837,336.976C439.009,332.147 425.32,325.461 420.491,320.633C419.475,319.616 416.171,320.887 415.155,319.871C414.902,319.618 414.902,314.025 415.155,313.771C421.323,307.604 431.115,304.812 437.907,298.02C443.22,292.707 453.358,291.826 457.65,287.534C457.852,287.333 459.623,287.534 459.937,287.534L470.61,287.534C471.432,287.534 475.37,287.712 475.62,288.213C476.084,289.139 457.119,288.332 463.617,289.104C488.209,292.028 457.358,288.713 458.902,288.713" style="fill:none;stroke:black;stroke-width:1px;"/>
        </g>
        <g transform="matrix(0.621422,-0.0422102,0.0677689,0.997701,174.15,17.9753)">
            <path d="M392.538,284.012L363.787,284.371C360.45,284.371 352.649,283.31 350.826,285.133C348.541,287.419 333.798,284.622 333.291,283.609C332.299,281.624 314.156,284.296 310.419,280.559C310.268,280.407 302.143,282.533 303.194,282.008C318.21,274.5 316.518,294.644 316.518,304.956C316.518,309.272 317.747,315.925 314.994,318.679C313.596,320.076 315.629,324.905 314.231,326.302C311.636,328.898 316.557,336.213 308.895,336.213" style="fill:none;stroke:black;stroke-width:1.2px;"/>
        </g>
        <g transform="matrix(0.621422,-0.0422102,0.0677689,0.997701,174.15,17.9753)">
            <path d="M309.155,336.438C329.412,335.875 369.183,343.075 382.084,343.075" style="fill:none;stroke:black;stroke-width:1.2px;"/>
        </g>
        <g transform="matrix(0.997701,-0.0677689,0.0677689,0.997701,15.4629,28.7542)">
            <path d="M446.887,341.55C452.566,334.772 468.562,336.343 475.095,336.213C481.448,336.087 481.819,334.797 487.13,338.508C489.342,340.053 496.575,340.08 496.092,343.5C495.651,346.629 485.294,350.839 484.244,351.461C479.333,354.372 479.725,355.595 473.585,356.477C468.703,357.179 463.76,357.62 458.828,357.572C448.736,357.473 435.731,356.856 428.59,356.036C424.012,355.511 419.044,350.114 414.376,349.225" style="fill:none;stroke:black;stroke-width:1px;"/>
        </g>
        <g transform="matrix(0.997701,-0.0677689,0.0677689,0.997701,15.4629,28.7542)">
            <path d="M487.279,350.201C489.276,350.201 512.722,354.889 513.977,356.036C515.563,357.486 533.099,358.147 537.912,354.309" style="fill:none;stroke:black;stroke-width:1px;"/>
        </g>
        <g transform="matrix(0.956373,-0.0649618,0.0677689,0.997701,64.5792,30.9084)">
            <path d="M318.049,277.39C300.682,277.39 300.011,267.896 290.675,258.56C289.007,256.892 270.604,236.568 269.205,235.169C249.917,215.881 244.212,207.49 225.794,189.072C224.944,188.222 218.744,189.072 217.408,189.072C209.278,189.072 206.356,190.334 202.525,194.165C196.562,200.128 191.091,208.649 184.99,214.75C182.917,216.823 179.8,236.186 179.563,236.422C176.355,239.631 173.463,249.663 171.594,254.154C167.38,264.277 168.951,276.301 168.951,289.681" style="fill:none;stroke:black;stroke-width:1.02px;"/>
        </g>
        <g transform="matrix(0.956373,-0.0649618,0.0677689,0.997701,64.5792,30.9084)">
            <path d="M274.587,295.044C260.579,295.044 248.214,290.018 240.28,282.084C238.454,280.258 234.25,275.651 232.64,274.041C230.778,272.179 226.218,265.924 225.383,264.064C222.485,257.609 223.531,251.708 219.861,248.038C219.436,247.613 216.181,241.675 216.049,241.938C212.508,249.02 207.6,273.491 202.16,284.371C201.354,285.983 201.433,293.52 199.873,293.52" style="fill:none;stroke:black;stroke-width:1.02px;"/>
        </g>
        <g transform="matrix(0.956373,-0.0649618,0.0677689,0.997701,64.5792,30.9084)">
            <path d="M268.488,293.52L222.745,293.52C216.089,293.52 206.993,294.792 201.398,291.995C194.802,288.697 179.256,293.885 172.427,290.47C166.776,287.645 153.719,293.871 149.555,289.708C148.395,288.548 139.942,289.708 138.119,289.708C130.404,289.708 115.446,294.481 109.149,288.183C108.171,287.206 104.335,288.826 103.05,288.183C97.854,285.585 84.392,284.914 81.866,287.439C81.523,287.782 69.605,288.385 69.504,288.183C68.805,286.784 55.558,284.826 55.558,283.753" style="fill:none;stroke:black;stroke-width:1.02px;"/>
        </g>
        <g transform="matrix(0.956373,-0.0649618,0.0677689,0.997701,64.5792,30.9084)">
            <path d="M82.796,306.647C93.488,309.059 111.354,313.06 121.347,316.391C138.058,321.962 155.517,315.56 172.427,324.015C179.085,327.344 200.373,326.802 203.685,330.114C205.21,331.639 211.309,328.59 212.834,330.114C215.673,332.954 229.998,331.639 234.943,331.639C243.181,331.639 253.977,332.414 260.102,329.352C263.344,327.731 269.205,330.922 271.537,328.59C272.775,327.352 281.791,328.59 283.736,328.59L320.33,328.59" style="fill:none;stroke:black;stroke-width:1.02px;"/>
        </g>
        <g transform="matrix(1.22098,-0.0829351,0.0872035,1.28382,40.3134,-50.2256)">
            <path d="M58.897,284.768C51.81,278.354 53.03,273.995 51.97,272.935C48.793,269.759 55.146,257.052 51.97,253.875C50.097,252.003 47.478,252.904 44.811,252.904L39.548,255.521C39.006,256.604 38.54,259.681 37.484,260.737C33.489,264.732 32.802,275.664 34.124,283.838C34.822,288.151 32.687,299.093 42.269,301.188C69.16,307.066 68.656,299.692 80.048,302.413" style="fill:none;stroke:black;stroke-width:0.8px;"/>
        </g>
        <path d="M649.277,354.796C641.815,354.796 636.04,355.16 631.725,354.272C627.672,353.439 617.67,350.15 612.174,347.402C609.373,346.001 591.258,350.614 572.344,347.334" style="fill:none;stroke:black;stroke-width:1px;"/>
        <path d="M576.493,279.797C581.094,273.86 599.124,276.988 604.701,271.41C606.1,270.011 611.42,272.316 613.088,270.648C614.388,269.348 608.561,271.41 608.513,271.41C606.807,271.41 603.159,274.495 602.414,275.985C600.012,280.79 581.526,277.51 574.968,277.51C573.267,277.51 565.377,278.592 564.295,277.51C563.057,276.272 564.295,267.256 564.295,265.311C564.295,261.896 564.295,259.84 564.295,259.975C564.295,267.055 564.15,272.791 568.107,276.747C568.996,277.637 570.267,278.145 571.156,279.034C572.055,279.933 576.239,279.034 574.968,279.034C563.994,279.034 565.82,273.598 565.82,263.787" style="fill:none;stroke:black;stroke-width:1px;"/>
        <g transform="matrix(1,0,0,1,35.8778,3.05343)">
            <path d="M129.004,329.052C124.222,324.27 126.684,317.956 126.684,308.767" style="fill:none;stroke:black;stroke-width:1px;"/>
        </g>
        <g transform="matrix(1,0,0,1,35.8778,3.05343)">
            <path d="M315.756,335.451C320.54,329.278 328.105,329.201 333.291,324.015C335.547,321.759 339.766,322.877 341.677,320.966C341.724,320.918 345.01,320.203 344.727,320.203C339.127,320.203 326.201,325.768 323.38,328.59C321.584,330.386 317.043,335.451 313.469,335.451" style="fill:none;stroke:black;stroke-width:1px;"/>
        </g>
        <g transform="matrix(1,0,0,1,35.8778,3.05343)">
            <path d="M209.784,295.044C213.396,295.044 228.268,297.519 229.606,298.856C231.832,301.083 246.073,297.332 241.804,297.332" style="fill:none;stroke:black;stroke-width:1px;"/>
        </g>
        <path d="M559.253,199.497C564.278,199.497 564.899,197.617 567.344,195.172C570.267,192.249 592.51,199.752 593.266,200.508C595.714,202.957 606.353,219.568 595.553,219.568" style="fill:none;stroke:black;stroke-width:1px;"/>
        <path d="M600.889,218.806C610.225,218.806 616.166,224.905 623.761,224.905" style="fill:none;stroke:black;stroke-width:1px;"/>
        <path d="M648.158,233.291C642.236,233.291 636.865,231.147 633.672,227.954C632.335,226.617 624.524,228.81 624.524,226.429" style="fill:none;stroke:black;stroke-width:1px;"/>
        <path d="M569.864,194.438C573.49,193.258 580.549,193.628 583.155,191.023C584.171,190.006 589.338,189.997 590.766,189.823C600.624,188.623 611.158,202.39 613.85,205.083C616.117,207.349 613.397,224.905 619.187,224.905" style="fill:none;stroke:black;stroke-width:1px;"/>
        <path d="M622.236,295.807C620.228,295.807 618.224,293.882 617.662,292.757C617.523,292.478 610.819,286.268 613.088,285.133C613.743,284.806 623.582,284.775 623.761,285.133C624.171,285.953 625.639,287.478 626.048,286.658C630.033,278.69 618.462,282.122 619.187,282.846C619.518,283.178 628.228,283.062 628.335,282.846C630.391,278.736 625.875,275.049 624.524,273.698C623.153,272.327 622.25,275.611 622.999,275.985C624.468,276.719 630.381,287.542 627.573,288.945C625.382,290.041 625.436,289.558 623.761,291.233C622.668,292.326 618.094,290.902 619.187,291.995C619.589,292.397 620.712,292.189 620.712,292.757C620.712,294.282 616.819,294.121 616.137,292.757C614.676,289.836 621.151,288.505 622.236,287.421C626.922,282.735 622.052,269.123 617.662,269.123" style="fill:none;stroke:black;stroke-width:1px;"/>
        <g transform="matrix(1,0,0,1,35.8778,3.05343)">
            <path d="M191.487,323.253C197.883,323.253 206.157,322.49 211.309,322.49C214.889,322.49 223.816,323.706 225.794,321.728C226.252,321.27 237.858,321.459 237.992,321.728C239.627,324.997 239.387,334.818 237.23,336.976C234.714,339.492 221.83,337.738 217.408,337.738C216.752,337.738 211.509,338.138 211.309,337.738C210.528,336.176 208.116,334.689 205.972,334.689C203.663,334.689 192.956,336.158 191.487,334.689C190.436,333.638 190.724,330.628 190.724,328.59" style="fill:none;stroke:black;stroke-width:1px;"/>
        </g>
        <path d="M556.671,291.995C556.671,295.002 552.291,299.619 549.047,299.619C545.67,299.619 546.025,300.353 544.473,301.906C543.934,302.445 541.423,301.906 542.186,301.906C542.972,301.906 552.746,305.605 552.859,305.718C553.048,305.907 554.976,309.871 555.146,309.53C555.656,308.51 554.347,304.992 555.146,304.193C555.459,303.88 561.183,299.207 560.483,298.856C559.883,298.556 557.179,299.365 556.671,298.856C554.818,297.004 555.85,295.807 552.859,295.807" style="fill:none;stroke:black;stroke-width:1px;"/>
        <path d="M550.572,305.718C550.099,305.718 552.814,305.809 552.859,305.718C553.783,303.87 552.901,301.906 551.334,301.906" style="fill:none;stroke:black;stroke-width:1px;"/>
        <path d="M655.725,235.878C645.78,235.878 649.7,225.954 656.489,225.954L658.015,225.954C659.088,228.1 659.091,228.87 660.305,231.298C660.788,232.263 663.675,233.588 662.595,233.588C659.511,233.588 653.435,237.611 653.435,231.298" style="fill:none;stroke:black;stroke-width:1px;"/>
    </g>
</svg>
